<?xml version="1.0" encoding="UTF-8"?>
<svg width="20px" height="14px" viewBox="0 0 20 14" version="1.1" xmlns="http://www.w3.org/2000/svg" xmlns:xlink="http://www.w3.org/1999/xlink">
    <!-- Generator: Sketch 64 (93537) - https://sketch.com -->
    <title>Menu</title>
    <desc>Created with Sketch.</desc>
    <g id="Page-1" stroke="none" stroke-width="1" fill="none" fill-rule="evenodd">
        <g id="Menu" transform="translate(-10.000000, -13.000000)">
            <rect id="base" x="0" y="0" width="40" height="40"></rect>
            <g id="ic-menu" transform="translate(10.000000, 13.000000)" fill="#465A88" fill-rule="nonzero">
                <path d="M18.87,11.63 C19.4940818,11.63 20,12.1359182 20,12.76 L20,12.77 C20,13.3940818 19.4940818,13.9 18.87,13.9 L1.13,13.9 C0.505918233,13.9 -1.77635684e-15,13.3940818 -1.77635684e-15,12.77 L-1.77635684e-15,12.76 C-1.77635684e-15,12.1359182 0.505918233,11.63 1.13,11.63 L18.87,11.63 Z M18.87,5.82 C19.4940818,5.82 20,6.32591823 20,6.95 L20,6.96 C20,7.58408177 19.4940818,8.09 18.87,8.09 L1.13,8.09 C0.505918233,8.09 -1.77635684e-15,7.58408177 -1.77635684e-15,6.96 L-1.77635684e-15,6.95 C-1.77635684e-15,6.32591823 0.505918233,5.82 1.13,5.82 L18.87,5.82 Z M18.87,-1.14233165e-14 C19.4940818,-1.15379585e-14 20,0.505918233 20,1.13 L20,1.14 C20,1.76408177 19.4940818,2.27 18.87,2.27 L1.13,2.27 C0.505918233,2.27 -1.77635684e-15,1.76408177 -1.77635684e-15,1.14 L-1.77635684e-15,1.13 C-1.77635684e-15,0.505918233 0.505918233,-1.02224128e-14 1.13,-1.03370548e-14 L18.87,-1.14233165e-14 Z" id="Combined-Shape"></path>
            </g>
        </g>
    </g>
</svg>