<svg width="24" height="24" viewBox="0 0 24 24" xmlns="http://www.w3.org/2000/svg">
	<path d="M17.909 3.85a.338.338 0 0 1 .48 0l1.761 1.761a.335.335 0 0 1 0 .478l-5.669 5.672a.338.338 0 0 0 0 .48l5.669 5.67a.335.335 0 0 1 0 .478l-1.761 1.761a.338.338 0 0 1-.48 0l-5.669-5.67a.338.338 0 0 0-.48 0l-5.669 5.67a.338.338 0 0 1-.48 0L3.85 18.389a.335.335 0 0 1 0-.478l5.669-5.67a.338.338 0 0 0 0-.48L3.85 6.09a.335.335 0 0 1 0-.478L5.611 3.85a.338.338 0 0 1 .48 0l5.669 5.67a.338.338 0 0 0 .48 0l5.669-5.67z" fill="#FFF" fill-rule="nonzero" />
</svg>
