<svg width="604" height="432" viewBox="0 0 604 432" fill="none" xmlns="http://www.w3.org/2000/svg">
<rect x="174.5" y="154.5" width="402" height="43" rx="3.5" fill="#EBEEEF"/>
<rect x="174.5" y="154.5" width="402" height="43" rx="3.5" stroke="#ABAEAF"/>
<path d="M190 166C190 164.895 190.895 164 192 164H212C213.105 164 214 164.895 214 166V186C214 187.105 213.105 188 212 188H192C190.895 188 190 187.105 190 186V166Z" fill="#977ECC"/>
<path d="M240.758 177.449C240.758 175.777 240.492 174.516 239.961 173.664C239.43 172.812 238.645 172.387 237.605 172.387C236.559 172.387 235.766 172.816 235.227 173.676C234.688 174.527 234.418 175.785 234.418 177.449C234.418 179.105 234.688 180.363 235.227 181.223C235.766 182.082 236.559 182.512 237.605 182.512C238.645 182.512 239.43 182.086 239.961 181.234C240.492 180.383 240.758 179.121 240.758 177.449ZM234.418 172.551C234.762 171.91 235.234 171.418 235.836 171.074C236.445 170.73 237.148 170.559 237.945 170.559C239.523 170.559 240.766 171.168 241.672 172.387C242.578 173.598 243.031 175.27 243.031 177.402C243.031 179.566 242.574 181.266 241.66 182.5C240.754 183.727 239.508 184.34 237.922 184.34C237.141 184.34 236.449 184.172 235.848 183.836C235.254 183.492 234.777 182.996 234.418 182.348V184H232.262V165.766H234.418V172.551ZM253.796 177.332C253.796 175.715 253.53 174.488 252.999 173.652C252.475 172.809 251.71 172.387 250.702 172.387C249.647 172.387 248.842 172.809 248.288 173.652C247.733 174.488 247.456 175.715 247.456 177.332C247.456 178.949 247.733 180.184 248.288 181.035C248.85 181.879 249.663 182.301 250.725 182.301C251.717 182.301 252.475 181.875 252.999 181.023C253.53 180.172 253.796 178.941 253.796 177.332ZM255.952 183.156C255.952 185.125 255.487 186.617 254.557 187.633C253.628 188.648 252.26 189.156 250.456 189.156C249.862 189.156 249.241 189.102 248.592 188.992C247.944 188.883 247.296 188.723 246.647 188.512V186.379C247.413 186.738 248.108 187.004 248.733 187.176C249.358 187.348 249.932 187.434 250.456 187.434C251.62 187.434 252.467 187.117 252.999 186.484C253.53 185.852 253.796 184.848 253.796 183.473V183.379V181.914C253.452 182.648 252.983 183.195 252.389 183.555C251.796 183.914 251.073 184.094 250.221 184.094C248.69 184.094 247.467 183.48 246.553 182.254C245.639 181.027 245.182 179.387 245.182 177.332C245.182 175.27 245.639 173.625 246.553 172.398C247.467 171.172 248.69 170.559 250.221 170.559C251.065 170.559 251.78 170.727 252.366 171.062C252.952 171.398 253.428 171.918 253.796 172.621V170.922H255.952V183.156ZM258.677 175.516H271.099V177.496H258.677V175.516ZM275.617 182.348V188.992H273.449V170.875H275.617V172.551C275.977 171.902 276.453 171.41 277.047 171.074C277.649 170.73 278.34 170.559 279.121 170.559C280.707 170.559 281.949 171.172 282.848 172.398C283.754 173.625 284.207 175.324 284.207 177.496C284.207 179.629 283.754 181.305 282.848 182.523C281.942 183.734 280.699 184.34 279.121 184.34C278.324 184.34 277.625 184.172 277.024 183.836C276.43 183.492 275.961 182.996 275.617 182.348ZM281.945 177.449C281.945 175.777 281.68 174.516 281.149 173.664C280.625 172.812 279.844 172.387 278.805 172.387C277.758 172.387 276.965 172.816 276.426 173.676C275.887 174.527 275.617 175.785 275.617 177.449C275.617 179.105 275.887 180.363 276.426 181.223C276.965 182.082 277.758 182.512 278.805 182.512C279.844 182.512 280.625 182.086 281.149 181.234C281.68 180.383 281.945 179.121 281.945 177.449ZM298.499 173.582C298.038 173.223 297.569 172.961 297.093 172.797C296.616 172.633 296.093 172.551 295.522 172.551C294.179 172.551 293.151 172.973 292.44 173.816C291.729 174.66 291.374 175.879 291.374 177.473V184H289.206V170.875H291.374V173.441C291.733 172.512 292.284 171.801 293.026 171.309C293.776 170.809 294.663 170.559 295.686 170.559C296.218 170.559 296.714 170.625 297.175 170.758C297.636 170.891 298.077 171.098 298.499 171.379V173.582ZM302.408 170.922H307.927V182.324H312.205V184H301.494V182.324H305.771V172.598H302.408V170.922ZM305.771 165.824H307.927V168.543H305.771V165.824ZM320.368 172.211C320.633 171.648 320.969 171.234 321.375 170.969C321.789 170.695 322.285 170.559 322.864 170.559C323.918 170.559 324.66 170.969 325.09 171.789C325.528 172.602 325.746 174.137 325.746 176.395V184H323.778V176.488C323.778 174.637 323.672 173.488 323.461 173.043C323.258 172.59 322.883 172.363 322.336 172.363C321.711 172.363 321.282 172.605 321.047 173.09C320.821 173.566 320.707 174.699 320.707 176.488V184H318.739V176.488C318.739 174.613 318.625 173.457 318.399 173.02C318.18 172.582 317.782 172.363 317.203 172.363C316.633 172.363 316.235 172.605 316.008 173.09C315.789 173.566 315.68 174.699 315.68 176.488V184H313.723V170.875H315.68V172C315.938 171.531 316.258 171.176 316.641 170.934C317.032 170.684 317.473 170.559 317.965 170.559C318.559 170.559 319.051 170.695 319.442 170.969C319.84 171.242 320.149 171.656 320.368 172.211ZM334.413 177.402H333.698C332.44 177.402 331.491 177.625 330.851 178.07C330.218 178.508 329.901 179.164 329.901 180.039C329.901 180.828 330.14 181.441 330.616 181.879C331.093 182.316 331.753 182.535 332.597 182.535C333.784 182.535 334.718 182.125 335.397 181.305C336.077 180.477 336.421 179.336 336.429 177.883V177.402H334.413ZM338.597 176.512V184H336.429V182.055C335.968 182.836 335.386 183.414 334.683 183.789C333.987 184.156 333.14 184.34 332.14 184.34C330.804 184.34 329.737 183.965 328.94 183.215C328.144 182.457 327.745 181.445 327.745 180.18C327.745 178.719 328.233 177.609 329.21 176.852C330.194 176.094 331.636 175.715 333.534 175.715H336.429V175.375C336.421 174.328 336.155 173.57 335.632 173.102C335.108 172.625 334.272 172.387 333.124 172.387C332.39 172.387 331.647 172.492 330.897 172.703C330.147 172.914 329.417 173.223 328.706 173.629V171.473C329.503 171.168 330.265 170.941 330.991 170.793C331.726 170.637 332.437 170.559 333.124 170.559C334.21 170.559 335.136 170.719 335.901 171.039C336.675 171.359 337.3 171.84 337.776 172.48C338.073 172.871 338.284 173.355 338.409 173.934C338.534 174.504 338.597 175.363 338.597 176.512ZM353.463 173.582C353.002 173.223 352.533 172.961 352.056 172.797C351.58 172.633 351.056 172.551 350.486 172.551C349.142 172.551 348.115 172.973 347.404 173.816C346.693 174.66 346.338 175.879 346.338 177.473V184H344.17V170.875H346.338V173.441C346.697 172.512 347.248 171.801 347.99 171.309C348.74 170.809 349.627 170.559 350.65 170.559C351.181 170.559 351.677 170.625 352.138 170.758C352.599 170.891 353.041 171.098 353.463 171.379V173.582ZM363.723 179.781C363.364 180.695 362.907 181.898 362.352 183.391C361.579 185.453 361.059 186.711 360.793 187.164C360.434 187.773 359.985 188.23 359.446 188.535C358.907 188.84 358.278 188.992 357.559 188.992H355.825V187.188H357.102C357.735 187.188 358.231 187.004 358.59 186.637C358.95 186.27 359.407 185.32 359.961 183.789L354.887 170.875H357.172L361.063 181.141L364.895 170.875H367.18L363.723 179.781ZM368.605 175.516H381.027V177.496H368.605V175.516ZM392.553 171.332V173.441C391.935 173.082 391.314 172.812 390.689 172.633C390.064 172.453 389.428 172.363 388.779 172.363C387.803 172.363 387.072 172.523 386.588 172.844C386.111 173.156 385.873 173.637 385.873 174.285C385.873 174.871 386.053 175.309 386.412 175.598C386.771 175.887 387.666 176.168 389.096 176.441L389.963 176.605C391.033 176.809 391.842 177.215 392.389 177.824C392.943 178.434 393.221 179.227 393.221 180.203C393.221 181.5 392.76 182.516 391.838 183.25C390.916 183.977 389.635 184.34 387.994 184.34C387.346 184.34 386.666 184.27 385.955 184.129C385.244 183.996 384.475 183.793 383.646 183.52V181.293C384.451 181.707 385.221 182.02 385.955 182.23C386.689 182.434 387.385 182.535 388.041 182.535C388.994 182.535 389.732 182.344 390.256 181.961C390.779 181.57 391.041 181.027 391.041 180.332C391.041 179.332 390.084 178.641 388.17 178.258L388.076 178.234L387.268 178.07C386.025 177.828 385.119 177.422 384.549 176.852C383.978 176.273 383.693 175.488 383.693 174.496C383.693 173.238 384.119 172.27 384.971 171.59C385.822 170.902 387.037 170.559 388.615 170.559C389.318 170.559 389.994 170.625 390.643 170.758C391.291 170.883 391.928 171.074 392.553 171.332ZM402.087 167.148V170.875H406.985V172.551H402.087V179.676C402.087 180.645 402.27 181.32 402.637 181.703C403.005 182.086 403.645 182.277 404.559 182.277H406.985V184H404.348C402.731 184 401.59 183.676 400.926 183.027C400.262 182.379 399.93 181.262 399.93 179.676V172.551H396.426V170.875H399.93V167.148H402.087ZM422.167 173.582C421.706 173.223 421.238 172.961 420.761 172.797C420.285 172.633 419.761 172.551 419.191 172.551C417.847 172.551 416.82 172.973 416.109 173.816C415.398 174.66 415.042 175.879 415.042 177.473V184H412.874V170.875H415.042V173.441C415.402 172.512 415.952 171.801 416.695 171.309C417.445 170.809 418.331 170.559 419.355 170.559C419.886 170.559 420.382 170.625 420.843 170.758C421.304 170.891 421.745 171.098 422.167 171.379V173.582ZM429.592 172.387C428.498 172.387 427.67 172.812 427.107 173.664C426.545 174.516 426.264 175.777 426.264 177.449C426.264 179.113 426.545 180.375 427.107 181.234C427.67 182.086 428.498 182.512 429.592 182.512C430.693 182.512 431.525 182.086 432.088 181.234C432.65 180.375 432.932 179.113 432.932 177.449C432.932 175.777 432.65 174.516 432.088 173.664C431.525 172.812 430.693 172.387 429.592 172.387ZM429.592 170.559C431.412 170.559 432.803 171.148 433.764 172.328C434.732 173.508 435.217 175.215 435.217 177.449C435.217 179.691 434.736 181.402 433.775 182.582C432.815 183.754 431.42 184.34 429.592 184.34C427.772 184.34 426.381 183.754 425.42 182.582C424.459 181.402 423.979 179.691 423.979 177.449C423.979 175.215 424.459 173.508 425.42 172.328C426.381 171.148 427.772 170.559 429.592 170.559ZM448.43 175.867V184H446.262V175.867C446.262 174.688 446.055 173.82 445.641 173.266C445.227 172.711 444.579 172.434 443.696 172.434C442.688 172.434 441.911 172.793 441.364 173.512C440.825 174.223 440.555 175.246 440.555 176.582V184H438.399V170.875H440.555V172.844C440.938 172.094 441.458 171.527 442.114 171.145C442.77 170.754 443.548 170.559 444.446 170.559C445.782 170.559 446.778 171 447.434 171.883C448.098 172.758 448.43 174.086 448.43 175.867ZM459.91 177.332C459.91 175.715 459.644 174.488 459.113 173.652C458.589 172.809 457.824 172.387 456.816 172.387C455.761 172.387 454.957 172.809 454.402 173.652C453.847 174.488 453.57 175.715 453.57 177.332C453.57 178.949 453.847 180.184 454.402 181.035C454.964 181.879 455.777 182.301 456.839 182.301C457.832 182.301 458.589 181.875 459.113 181.023C459.644 180.172 459.91 178.941 459.91 177.332ZM462.066 183.156C462.066 185.125 461.601 186.617 460.671 187.633C459.742 188.648 458.375 189.156 456.57 189.156C455.976 189.156 455.355 189.102 454.707 188.992C454.058 188.883 453.41 188.723 452.761 188.512V186.379C453.527 186.738 454.222 187.004 454.847 187.176C455.472 187.348 456.046 187.434 456.57 187.434C457.734 187.434 458.582 187.117 459.113 186.484C459.644 185.852 459.91 184.848 459.91 183.473V183.379V181.914C459.566 182.648 459.097 183.195 458.503 183.555C457.91 183.914 457.187 184.094 456.335 184.094C454.804 184.094 453.582 183.48 452.667 182.254C451.753 181.027 451.296 179.387 451.296 177.332C451.296 175.27 451.753 173.625 452.667 172.398C453.582 171.172 454.804 170.559 456.335 170.559C457.179 170.559 457.894 170.727 458.48 171.062C459.066 171.398 459.542 171.918 459.91 172.621V170.922H462.066V183.156ZM464.791 175.516H477.213V177.496H464.791V175.516ZM485.563 177.402H484.849C483.591 177.402 482.642 177.625 482.001 178.07C481.368 178.508 481.052 179.164 481.052 180.039C481.052 180.828 481.29 181.441 481.767 181.879C482.243 182.316 482.903 182.535 483.747 182.535C484.935 182.535 485.868 182.125 486.548 181.305C487.227 180.477 487.571 179.336 487.579 177.883V177.402H485.563ZM489.747 176.512V184H487.579V182.055C487.118 182.836 486.536 183.414 485.833 183.789C485.138 184.156 484.29 184.34 483.29 184.34C481.954 184.34 480.888 183.965 480.091 183.215C479.294 182.457 478.895 181.445 478.895 180.18C478.895 178.719 479.384 177.609 480.36 176.852C481.345 176.094 482.786 175.715 484.685 175.715H487.579V175.375C487.571 174.328 487.306 173.57 486.782 173.102C486.259 172.625 485.423 172.387 484.274 172.387C483.54 172.387 482.798 172.492 482.048 172.703C481.298 172.914 480.567 173.223 479.856 173.629V171.473C480.653 171.168 481.415 170.941 482.142 170.793C482.876 170.637 483.587 170.559 484.274 170.559C485.36 170.559 486.286 170.719 487.052 171.039C487.825 171.359 488.45 171.84 488.927 172.48C489.224 172.871 489.435 173.355 489.56 173.934C489.685 174.504 489.747 175.363 489.747 176.512ZM503.511 183.332C502.933 183.668 502.336 183.918 501.718 184.082C501.109 184.254 500.484 184.34 499.843 184.34C497.812 184.34 496.222 183.73 495.074 182.512C493.933 181.293 493.363 179.605 493.363 177.449C493.363 175.293 493.933 173.605 495.074 172.387C496.222 171.168 497.812 170.559 499.843 170.559C500.476 170.559 501.093 170.641 501.695 170.805C502.297 170.969 502.902 171.223 503.511 171.566V173.828C502.941 173.32 502.367 172.953 501.789 172.727C501.218 172.5 500.57 172.387 499.843 172.387C498.492 172.387 497.453 172.824 496.726 173.699C496 174.574 495.636 175.824 495.636 177.449C495.636 179.066 496 180.316 496.726 181.199C497.461 182.074 498.5 182.512 499.843 182.512C500.593 182.512 501.265 182.398 501.859 182.172C502.453 181.938 503.004 181.578 503.511 181.094V183.332ZM512.014 167.148V170.875H516.913V172.551H512.014V179.676C512.014 180.645 512.198 181.32 512.565 181.703C512.932 182.086 513.573 182.277 514.487 182.277H516.913V184H514.276C512.659 184 511.518 183.676 510.854 183.027C510.19 182.379 509.858 181.262 509.858 179.676V172.551H506.354V170.875H509.858V167.148H512.014ZM522.263 170.922H527.782V182.324H532.06V184H521.349V182.324H525.626V172.598H522.263V170.922ZM525.626 165.824H527.782V168.543H525.626V165.824ZM533.473 170.875H535.711L539.519 181.891L543.34 170.875H545.578L540.914 184H538.137L533.473 170.875ZM559.167 176.359V177.414H549.827V177.484C549.764 179.273 550.104 180.559 550.846 181.34C551.596 182.121 552.651 182.512 554.01 182.512C554.698 182.512 555.417 182.402 556.167 182.184C556.917 181.965 557.717 181.633 558.569 181.188V183.332C557.749 183.668 556.956 183.918 556.19 184.082C555.432 184.254 554.698 184.34 553.987 184.34C551.948 184.34 550.354 183.73 549.206 182.512C548.057 181.285 547.483 179.598 547.483 177.449C547.483 175.355 548.045 173.684 549.17 172.434C550.295 171.184 551.795 170.559 553.67 170.559C555.342 170.559 556.659 171.125 557.62 172.258C558.588 173.391 559.104 174.758 559.167 176.359ZM557.01 175.727C556.917 174.82 556.585 174.039 556.014 173.383C555.452 172.719 554.639 172.387 553.577 172.387C552.538 172.387 551.682 172.73 551.01 173.418C550.338 174.105 549.971 174.879 549.909 175.738L557.01 175.727Z" fill="#1A1919"/>
<rect x="174.5" y="339.5" width="223" height="43" rx="3.5" fill="#EBEEEF"/>
<rect x="174.5" y="339.5" width="223" height="43" rx="3.5" stroke="#ABAEAF"/>
<path d="M190 351C190 349.895 190.895 349 192 349H212C213.105 349 214 349.895 214 351V371C214 372.105 213.105 373 212 373H192C190.895 373 190 372.105 190 371V351Z" fill="#E0E4E5"/>
<path d="M240.758 362.449C240.758 360.777 240.492 359.516 239.961 358.664C239.43 357.812 238.645 357.387 237.605 357.387C236.559 357.387 235.766 357.816 235.227 358.676C234.688 359.527 234.418 360.785 234.418 362.449C234.418 364.105 234.688 365.363 235.227 366.223C235.766 367.082 236.559 367.512 237.605 367.512C238.645 367.512 239.43 367.086 239.961 366.234C240.492 365.383 240.758 364.121 240.758 362.449ZM234.418 357.551C234.762 356.91 235.234 356.418 235.836 356.074C236.445 355.73 237.148 355.559 237.945 355.559C239.523 355.559 240.766 356.168 241.672 357.387C242.578 358.598 243.031 360.27 243.031 362.402C243.031 364.566 242.574 366.266 241.66 367.5C240.754 368.727 239.508 369.34 237.922 369.34C237.141 369.34 236.449 369.172 235.848 368.836C235.254 368.492 234.777 367.996 234.418 367.348V369H232.262V350.766H234.418V357.551ZM253.796 362.332C253.796 360.715 253.53 359.488 252.999 358.652C252.475 357.809 251.71 357.387 250.702 357.387C249.647 357.387 248.842 357.809 248.288 358.652C247.733 359.488 247.456 360.715 247.456 362.332C247.456 363.949 247.733 365.184 248.288 366.035C248.85 366.879 249.663 367.301 250.725 367.301C251.717 367.301 252.475 366.875 252.999 366.023C253.53 365.172 253.796 363.941 253.796 362.332ZM255.952 368.156C255.952 370.125 255.487 371.617 254.557 372.633C253.628 373.648 252.26 374.156 250.456 374.156C249.862 374.156 249.241 374.102 248.592 373.992C247.944 373.883 247.296 373.723 246.647 373.512V371.379C247.413 371.738 248.108 372.004 248.733 372.176C249.358 372.348 249.932 372.434 250.456 372.434C251.62 372.434 252.467 372.117 252.999 371.484C253.53 370.852 253.796 369.848 253.796 368.473V368.379V366.914C253.452 367.648 252.983 368.195 252.389 368.555C251.796 368.914 251.073 369.094 250.221 369.094C248.69 369.094 247.467 368.48 246.553 367.254C245.639 366.027 245.182 364.387 245.182 362.332C245.182 360.27 245.639 358.625 246.553 357.398C247.467 356.172 248.69 355.559 250.221 355.559C251.065 355.559 251.78 355.727 252.366 356.062C252.952 356.398 253.428 356.918 253.796 357.621V355.922H255.952V368.156ZM258.677 360.516H271.099V362.496H258.677V360.516ZM281.278 357.551V350.766H283.434V369H281.278V367.348C280.918 367.996 280.438 368.492 279.836 368.836C279.242 369.172 278.555 369.34 277.774 369.34C276.188 369.34 274.938 368.727 274.024 367.5C273.117 366.266 272.664 364.566 272.664 362.402C272.664 360.27 273.121 358.598 274.035 357.387C274.949 356.168 276.195 355.559 277.774 355.559C278.563 355.559 279.258 355.73 279.86 356.074C280.461 356.41 280.934 356.902 281.278 357.551ZM274.938 362.449C274.938 364.121 275.203 365.383 275.735 366.234C276.266 367.086 277.051 367.512 278.09 367.512C279.129 367.512 279.918 367.082 280.457 366.223C281.004 365.363 281.278 364.105 281.278 362.449C281.278 360.785 281.004 359.527 280.457 358.676C279.918 357.816 279.129 357.387 278.09 357.387C277.051 357.387 276.266 357.812 275.735 358.664C275.203 359.516 274.938 360.777 274.938 362.449ZM288.667 355.922H294.186V367.324H298.464V369H287.753V367.324H292.03V357.598H288.667V355.922ZM292.03 350.824H294.186V353.543H292.03V350.824ZM310.107 356.332V358.441C309.49 358.082 308.869 357.812 308.244 357.633C307.619 357.453 306.982 357.363 306.334 357.363C305.357 357.363 304.627 357.523 304.142 357.844C303.666 358.156 303.427 358.637 303.427 359.285C303.427 359.871 303.607 360.309 303.966 360.598C304.326 360.887 305.22 361.168 306.65 361.441L307.517 361.605C308.588 361.809 309.396 362.215 309.943 362.824C310.498 363.434 310.775 364.227 310.775 365.203C310.775 366.5 310.314 367.516 309.392 368.25C308.47 368.977 307.189 369.34 305.548 369.34C304.9 369.34 304.22 369.27 303.509 369.129C302.798 368.996 302.029 368.793 301.201 368.52V366.293C302.005 366.707 302.775 367.02 303.509 367.23C304.244 367.434 304.939 367.535 305.595 367.535C306.548 367.535 307.287 367.344 307.81 366.961C308.334 366.57 308.595 366.027 308.595 365.332C308.595 364.332 307.638 363.641 305.724 363.258L305.63 363.234L304.822 363.07C303.58 362.828 302.673 362.422 302.103 361.852C301.533 361.273 301.248 360.488 301.248 359.496C301.248 358.238 301.673 357.27 302.525 356.59C303.377 355.902 304.591 355.559 306.17 355.559C306.873 355.559 307.548 355.625 308.197 355.758C308.845 355.883 309.482 356.074 310.107 356.332ZM320.672 362.402H319.957C318.7 362.402 317.75 362.625 317.11 363.07C316.477 363.508 316.16 364.164 316.16 365.039C316.16 365.828 316.399 366.441 316.875 366.879C317.352 367.316 318.012 367.535 318.856 367.535C320.043 367.535 320.977 367.125 321.657 366.305C322.336 365.477 322.68 364.336 322.688 362.883V362.402H320.672ZM324.856 361.512V369H322.688V367.055C322.227 367.836 321.645 368.414 320.942 368.789C320.246 369.156 319.399 369.34 318.399 369.34C317.063 369.34 315.996 368.965 315.2 368.215C314.403 367.457 314.004 366.445 314.004 365.18C314.004 363.719 314.493 362.609 315.469 361.852C316.453 361.094 317.895 360.715 319.793 360.715H322.688V360.375C322.68 359.328 322.414 358.57 321.891 358.102C321.368 357.625 320.532 357.387 319.383 357.387C318.649 357.387 317.907 357.492 317.157 357.703C316.407 357.914 315.676 358.223 314.965 358.629V356.473C315.762 356.168 316.524 355.941 317.25 355.793C317.985 355.637 318.696 355.559 319.383 355.559C320.469 355.559 321.395 355.719 322.16 356.039C322.934 356.359 323.559 356.84 324.035 357.48C324.332 357.871 324.543 358.355 324.668 358.934C324.793 359.504 324.856 360.363 324.856 361.512ZM336.944 362.449C336.944 360.777 336.679 359.516 336.147 358.664C335.616 357.812 334.831 357.387 333.792 357.387C332.745 357.387 331.952 357.816 331.413 358.676C330.874 359.527 330.605 360.785 330.605 362.449C330.605 364.105 330.874 365.363 331.413 366.223C331.952 367.082 332.745 367.512 333.792 367.512C334.831 367.512 335.616 367.086 336.147 366.234C336.679 365.383 336.944 364.121 336.944 362.449ZM330.605 357.551C330.948 356.91 331.421 356.418 332.022 356.074C332.632 355.73 333.335 355.559 334.132 355.559C335.71 355.559 336.952 356.168 337.858 357.387C338.765 358.598 339.218 360.27 339.218 362.402C339.218 364.566 338.761 366.266 337.847 367.5C336.94 368.727 335.694 369.34 334.108 369.34C333.327 369.34 332.636 369.172 332.034 368.836C331.44 368.492 330.964 367.996 330.605 367.348V369H328.448V350.766H330.605V357.551ZM348.353 364.254C348.353 365.223 348.529 365.953 348.881 366.445C349.24 366.938 349.767 367.184 350.463 367.184H352.982V369H350.252C348.963 369 347.963 368.59 347.252 367.77C346.549 366.941 346.197 365.77 346.197 364.254V352.383H342.74V350.695H348.353V364.254ZM366.793 361.359V362.414H357.454V362.484C357.391 364.273 357.731 365.559 358.473 366.34C359.223 367.121 360.278 367.512 361.637 367.512C362.325 367.512 363.043 367.402 363.793 367.184C364.543 366.965 365.344 366.633 366.196 366.188V368.332C365.375 368.668 364.582 368.918 363.817 369.082C363.059 369.254 362.325 369.34 361.614 369.34C359.575 369.34 357.981 368.73 356.832 367.512C355.684 366.285 355.11 364.598 355.11 362.449C355.11 360.355 355.672 358.684 356.797 357.434C357.922 356.184 359.422 355.559 361.297 355.559C362.969 355.559 364.286 356.125 365.247 357.258C366.215 358.391 366.731 359.758 366.793 361.359ZM364.637 360.727C364.543 359.82 364.211 359.039 363.641 358.383C363.079 357.719 362.266 357.387 361.204 357.387C360.165 357.387 359.309 357.73 358.637 358.418C357.965 359.105 357.598 359.879 357.536 360.738L364.637 360.727ZM377.464 357.551V350.766H379.62V369H377.464V367.348C377.105 367.996 376.624 368.492 376.023 368.836C375.429 369.172 374.741 369.34 373.96 369.34C372.374 369.34 371.124 368.727 370.21 367.5C369.304 366.266 368.851 364.566 368.851 362.402C368.851 360.27 369.308 358.598 370.222 357.387C371.136 356.168 372.382 355.559 373.96 355.559C374.749 355.559 375.445 355.73 376.046 356.074C376.648 356.41 377.12 356.902 377.464 357.551ZM371.124 362.449C371.124 364.121 371.39 365.383 371.921 366.234C372.452 367.086 373.238 367.512 374.277 367.512C375.316 367.512 376.105 367.082 376.644 366.223C377.191 365.363 377.464 364.105 377.464 362.449C377.464 360.785 377.191 359.527 376.644 358.676C376.105 357.816 375.316 357.387 374.277 357.387C373.238 357.387 372.452 357.812 371.921 358.664C371.39 359.516 371.124 360.777 371.124 362.449Z" fill="#1A1919"/>
<rect x="174.5" y="0.5" width="306" height="43" rx="3.5" fill="#EBEEEF"/>
<rect x="174.5" y="0.5" width="306" height="43" rx="3.5" stroke="#ABAEAF"/>
<path d="M190 12C190 10.8954 190.895 10 192 10H212C213.105 10 214 10.8954 214 12V32C214 33.1046 213.105 34 212 34H192C190.895 34 190 33.1046 190 32V12Z" fill="#977ECC"/>
<path d="M240.758 23.4492C240.758 21.7773 240.492 20.5156 239.961 19.6641C239.43 18.8125 238.645 18.3867 237.605 18.3867C236.559 18.3867 235.766 18.8164 235.227 19.6758C234.688 20.5273 234.418 21.7852 234.418 23.4492C234.418 25.1055 234.688 26.3633 235.227 27.2227C235.766 28.082 236.559 28.5117 237.605 28.5117C238.645 28.5117 239.43 28.0859 239.961 27.2344C240.492 26.3828 240.758 25.1211 240.758 23.4492ZM234.418 18.5508C234.762 17.9102 235.234 17.418 235.836 17.0742C236.445 16.7305 237.148 16.5586 237.945 16.5586C239.523 16.5586 240.766 17.168 241.672 18.3867C242.578 19.5977 243.031 21.2695 243.031 23.4023C243.031 25.5664 242.574 27.2656 241.66 28.5C240.754 29.7266 239.508 30.3398 237.922 30.3398C237.141 30.3398 236.449 30.1719 235.848 29.8359C235.254 29.4922 234.777 28.9961 234.418 28.3477V30H232.262V11.7656H234.418V18.5508ZM253.796 23.332C253.796 21.7148 253.53 20.4883 252.999 19.6523C252.475 18.8086 251.71 18.3867 250.702 18.3867C249.647 18.3867 248.842 18.8086 248.288 19.6523C247.733 20.4883 247.456 21.7148 247.456 23.332C247.456 24.9492 247.733 26.1836 248.288 27.0352C248.85 27.8789 249.663 28.3008 250.725 28.3008C251.717 28.3008 252.475 27.875 252.999 27.0234C253.53 26.1719 253.796 24.9414 253.796 23.332ZM255.952 29.1562C255.952 31.125 255.487 32.6172 254.557 33.6328C253.628 34.6484 252.26 35.1562 250.456 35.1562C249.862 35.1562 249.241 35.1016 248.592 34.9922C247.944 34.8828 247.296 34.7227 246.647 34.5117V32.3789C247.413 32.7383 248.108 33.0039 248.733 33.1758C249.358 33.3477 249.932 33.4336 250.456 33.4336C251.62 33.4336 252.467 33.1172 252.999 32.4844C253.53 31.8516 253.796 30.8477 253.796 29.4727V29.3789V27.9141C253.452 28.6484 252.983 29.1953 252.389 29.5547C251.796 29.9141 251.073 30.0938 250.221 30.0938C248.69 30.0938 247.467 29.4805 246.553 28.2539C245.639 27.0273 245.182 25.3867 245.182 23.332C245.182 21.2695 245.639 19.625 246.553 18.3984C247.467 17.1719 248.69 16.5586 250.221 16.5586C251.065 16.5586 251.78 16.7266 252.366 17.0625C252.952 17.3984 253.428 17.918 253.796 18.6211V16.9219H255.952V29.1562ZM258.677 21.5156H271.099V23.4961H258.677V21.5156ZM275.617 28.3477V34.9922H273.449V16.875H275.617V18.5508C275.977 17.9023 276.453 17.4102 277.047 17.0742C277.649 16.7305 278.34 16.5586 279.121 16.5586C280.707 16.5586 281.949 17.1719 282.848 18.3984C283.754 19.625 284.207 21.3242 284.207 23.4961C284.207 25.6289 283.754 27.3047 282.848 28.5234C281.942 29.7344 280.699 30.3398 279.121 30.3398C278.324 30.3398 277.625 30.1719 277.024 29.8359C276.43 29.4922 275.961 28.9961 275.617 28.3477ZM281.945 23.4492C281.945 21.7773 281.68 20.5156 281.149 19.6641C280.625 18.8125 279.844 18.3867 278.805 18.3867C277.758 18.3867 276.965 18.8164 276.426 19.6758C275.887 20.5273 275.617 21.7852 275.617 23.4492C275.617 25.1055 275.887 26.3633 276.426 27.2227C276.965 28.082 277.758 28.5117 278.805 28.5117C279.844 28.5117 280.625 28.0859 281.149 27.2344C281.68 26.3828 281.945 25.1211 281.945 23.4492ZM298.499 19.582C298.038 19.2227 297.569 18.9609 297.093 18.7969C296.616 18.6328 296.093 18.5508 295.522 18.5508C294.179 18.5508 293.151 18.9727 292.44 19.8164C291.729 20.6602 291.374 21.8789 291.374 23.4727V30H289.206V16.875H291.374V19.4414C291.733 18.5117 292.284 17.8008 293.026 17.3086C293.776 16.8086 294.663 16.5586 295.686 16.5586C296.218 16.5586 296.714 16.625 297.175 16.7578C297.636 16.8906 298.077 17.0977 298.499 17.3789V19.582ZM302.408 16.9219H307.927V28.3242H312.205V30H301.494V28.3242H305.771V18.5977H302.408V16.9219ZM305.771 11.8242H307.927V14.543H305.771V11.8242ZM320.368 18.2109C320.633 17.6484 320.969 17.2344 321.375 16.9688C321.789 16.6953 322.285 16.5586 322.864 16.5586C323.918 16.5586 324.66 16.9688 325.09 17.7891C325.528 18.6016 325.746 20.1367 325.746 22.3945V30H323.778V22.4883C323.778 20.6367 323.672 19.4883 323.461 19.043C323.258 18.5898 322.883 18.3633 322.336 18.3633C321.711 18.3633 321.282 18.6055 321.047 19.0898C320.821 19.5664 320.707 20.6992 320.707 22.4883V30H318.739V22.4883C318.739 20.6133 318.625 19.457 318.399 19.0195C318.18 18.582 317.782 18.3633 317.203 18.3633C316.633 18.3633 316.235 18.6055 316.008 19.0898C315.789 19.5664 315.68 20.6992 315.68 22.4883V30H313.723V16.875H315.68V18C315.938 17.5312 316.258 17.1758 316.641 16.9336C317.032 16.6836 317.473 16.5586 317.965 16.5586C318.559 16.5586 319.051 16.6953 319.442 16.9688C319.84 17.2422 320.149 17.6562 320.368 18.2109ZM334.413 23.4023H333.698C332.44 23.4023 331.491 23.625 330.851 24.0703C330.218 24.5078 329.901 25.1641 329.901 26.0391C329.901 26.8281 330.14 27.4414 330.616 27.8789C331.093 28.3164 331.753 28.5352 332.597 28.5352C333.784 28.5352 334.718 28.125 335.397 27.3047C336.077 26.4766 336.421 25.3359 336.429 23.8828V23.4023H334.413ZM338.597 22.5117V30H336.429V28.0547C335.968 28.8359 335.386 29.4141 334.683 29.7891C333.987 30.1562 333.14 30.3398 332.14 30.3398C330.804 30.3398 329.737 29.9648 328.94 29.2148C328.144 28.457 327.745 27.4453 327.745 26.1797C327.745 24.7188 328.233 23.6094 329.21 22.8516C330.194 22.0938 331.636 21.7148 333.534 21.7148H336.429V21.375C336.421 20.3281 336.155 19.5703 335.632 19.1016C335.108 18.625 334.272 18.3867 333.124 18.3867C332.39 18.3867 331.647 18.4922 330.897 18.7031C330.147 18.9141 329.417 19.2227 328.706 19.6289V17.4727C329.503 17.168 330.265 16.9414 330.991 16.793C331.726 16.6367 332.437 16.5586 333.124 16.5586C334.21 16.5586 335.136 16.7188 335.901 17.0391C336.675 17.3594 337.3 17.8398 337.776 18.4805C338.073 18.8711 338.284 19.3555 338.409 19.9336C338.534 20.5039 338.597 21.3633 338.597 22.5117ZM353.463 19.582C353.002 19.2227 352.533 18.9609 352.056 18.7969C351.58 18.6328 351.056 18.5508 350.486 18.5508C349.142 18.5508 348.115 18.9727 347.404 19.8164C346.693 20.6602 346.338 21.8789 346.338 23.4727V30H344.17V16.875H346.338V19.4414C346.697 18.5117 347.248 17.8008 347.99 17.3086C348.74 16.8086 349.627 16.5586 350.65 16.5586C351.181 16.5586 351.677 16.625 352.138 16.7578C352.599 16.8906 353.041 17.0977 353.463 17.3789V19.582ZM363.723 25.7812C363.364 26.6953 362.907 27.8984 362.352 29.3906C361.579 31.4531 361.059 32.7109 360.793 33.1641C360.434 33.7734 359.985 34.2305 359.446 34.5352C358.907 34.8398 358.278 34.9922 357.559 34.9922H355.825V33.1875H357.102C357.735 33.1875 358.231 33.0039 358.59 32.6367C358.95 32.2695 359.407 31.3203 359.961 29.7891L354.887 16.875H357.172L361.063 27.1406L364.895 16.875H367.18L363.723 25.7812ZM368.605 21.5156H381.027V23.4961H368.605V21.5156ZM392.553 17.332V19.4414C391.935 19.082 391.314 18.8125 390.689 18.6328C390.064 18.4531 389.428 18.3633 388.779 18.3633C387.803 18.3633 387.072 18.5234 386.588 18.8438C386.111 19.1562 385.873 19.6367 385.873 20.2852C385.873 20.8711 386.053 21.3086 386.412 21.5977C386.771 21.8867 387.666 22.168 389.096 22.4414L389.963 22.6055C391.033 22.8086 391.842 23.2148 392.389 23.8242C392.943 24.4336 393.221 25.2266 393.221 26.2031C393.221 27.5 392.76 28.5156 391.838 29.25C390.916 29.9766 389.635 30.3398 387.994 30.3398C387.346 30.3398 386.666 30.2695 385.955 30.1289C385.244 29.9961 384.475 29.793 383.646 29.5195V27.293C384.451 27.707 385.221 28.0195 385.955 28.2305C386.689 28.4336 387.385 28.5352 388.041 28.5352C388.994 28.5352 389.732 28.3438 390.256 27.9609C390.779 27.5703 391.041 27.0273 391.041 26.332C391.041 25.332 390.084 24.6406 388.17 24.2578L388.076 24.2344L387.268 24.0703C386.025 23.8281 385.119 23.4219 384.549 22.8516C383.978 22.2734 383.693 21.4883 383.693 20.4961C383.693 19.2383 384.119 18.2695 384.971 17.5898C385.822 16.9023 387.037 16.5586 388.615 16.5586C389.318 16.5586 389.994 16.625 390.643 16.7578C391.291 16.8828 391.928 17.0742 392.553 17.332ZM402.087 13.1484V16.875H406.985V18.5508H402.087V25.6758C402.087 26.6445 402.27 27.3203 402.637 27.7031C403.005 28.0859 403.645 28.2773 404.559 28.2773H406.985V30H404.348C402.731 30 401.59 29.6758 400.926 29.0273C400.262 28.3789 399.93 27.2617 399.93 25.6758V18.5508H396.426V16.875H399.93V13.1484H402.087ZM422.167 19.582C421.706 19.2227 421.238 18.9609 420.761 18.7969C420.285 18.6328 419.761 18.5508 419.191 18.5508C417.847 18.5508 416.82 18.9727 416.109 19.8164C415.398 20.6602 415.042 21.8789 415.042 23.4727V30H412.874V16.875H415.042V19.4414C415.402 18.5117 415.952 17.8008 416.695 17.3086C417.445 16.8086 418.331 16.5586 419.355 16.5586C419.886 16.5586 420.382 16.625 420.843 16.7578C421.304 16.8906 421.745 17.0977 422.167 17.3789V19.582ZM429.592 18.3867C428.498 18.3867 427.67 18.8125 427.107 19.6641C426.545 20.5156 426.264 21.7773 426.264 23.4492C426.264 25.1133 426.545 26.375 427.107 27.2344C427.67 28.0859 428.498 28.5117 429.592 28.5117C430.693 28.5117 431.525 28.0859 432.088 27.2344C432.65 26.375 432.932 25.1133 432.932 23.4492C432.932 21.7773 432.65 20.5156 432.088 19.6641C431.525 18.8125 430.693 18.3867 429.592 18.3867ZM429.592 16.5586C431.412 16.5586 432.803 17.1484 433.764 18.3281C434.732 19.5078 435.217 21.2148 435.217 23.4492C435.217 25.6914 434.736 27.4023 433.775 28.582C432.815 29.7539 431.42 30.3398 429.592 30.3398C427.772 30.3398 426.381 29.7539 425.42 28.582C424.459 27.4023 423.979 25.6914 423.979 23.4492C423.979 21.2148 424.459 19.5078 425.42 18.3281C426.381 17.1484 427.772 16.5586 429.592 16.5586ZM448.43 21.8672V30H446.262V21.8672C446.262 20.6875 446.055 19.8203 445.641 19.2656C445.227 18.7109 444.579 18.4336 443.696 18.4336C442.688 18.4336 441.911 18.793 441.364 19.5117C440.825 20.2227 440.555 21.2461 440.555 22.582V30H438.399V16.875H440.555V18.8438C440.938 18.0938 441.458 17.5273 442.114 17.1445C442.77 16.7539 443.548 16.5586 444.446 16.5586C445.782 16.5586 446.778 17 447.434 17.8828C448.098 18.7578 448.43 20.0859 448.43 21.8672ZM459.91 23.332C459.91 21.7148 459.644 20.4883 459.113 19.6523C458.589 18.8086 457.824 18.3867 456.816 18.3867C455.761 18.3867 454.957 18.8086 454.402 19.6523C453.847 20.4883 453.57 21.7148 453.57 23.332C453.57 24.9492 453.847 26.1836 454.402 27.0352C454.964 27.8789 455.777 28.3008 456.839 28.3008C457.832 28.3008 458.589 27.875 459.113 27.0234C459.644 26.1719 459.91 24.9414 459.91 23.332ZM462.066 29.1562C462.066 31.125 461.601 32.6172 460.671 33.6328C459.742 34.6484 458.375 35.1562 456.57 35.1562C455.976 35.1562 455.355 35.1016 454.707 34.9922C454.058 34.8828 453.41 34.7227 452.761 34.5117V32.3789C453.527 32.7383 454.222 33.0039 454.847 33.1758C455.472 33.3477 456.046 33.4336 456.57 33.4336C457.734 33.4336 458.582 33.1172 459.113 32.4844C459.644 31.8516 459.91 30.8477 459.91 29.4727V29.3789V27.9141C459.566 28.6484 459.097 29.1953 458.503 29.5547C457.91 29.9141 457.187 30.0938 456.335 30.0938C454.804 30.0938 453.582 29.4805 452.667 28.2539C451.753 27.0273 451.296 25.3867 451.296 23.332C451.296 21.2695 451.753 19.625 452.667 18.3984C453.582 17.1719 454.804 16.5586 456.335 16.5586C457.179 16.5586 457.894 16.7266 458.48 17.0625C459.066 17.3984 459.542 17.918 459.91 18.6211V16.9219H462.066V29.1562Z" fill="#1A1919"/>
<rect x="174.5" y="203.5" width="429" height="43" rx="3.5" fill="#EBEEEF"/>
<rect x="174.5" y="203.5" width="429" height="43" rx="3.5" stroke="#ABAEAF"/>
<path d="M190 215C190 213.895 190.895 213 192 213H212C213.105 213 214 213.895 214 215V235C214 236.105 213.105 237 212 237H192C190.895 237 190 236.105 190 235V215Z" fill="#6F4AB8"/>
<path d="M237.195 216.148V219.875H242.094V221.551H237.195V228.676C237.195 229.645 237.379 230.32 237.746 230.703C238.113 231.086 238.754 231.277 239.668 231.277H242.094V233H239.457C237.84 233 236.699 232.676 236.035 232.027C235.371 231.379 235.039 230.262 235.039 228.676V221.551H231.535V219.875H235.039V216.148H237.195ZM256.866 225.359V226.414H247.526V226.484C247.464 228.273 247.803 229.559 248.546 230.34C249.296 231.121 250.35 231.512 251.71 231.512C252.397 231.512 253.116 231.402 253.866 231.184C254.616 230.965 255.417 230.633 256.268 230.188V232.332C255.448 232.668 254.655 232.918 253.889 233.082C253.132 233.254 252.397 233.34 251.686 233.34C249.647 233.34 248.053 232.73 246.905 231.512C245.757 230.285 245.182 228.598 245.182 226.449C245.182 224.355 245.745 222.684 246.87 221.434C247.995 220.184 249.495 219.559 251.37 219.559C253.042 219.559 254.358 220.125 255.319 221.258C256.288 222.391 256.803 223.758 256.866 225.359ZM254.71 224.727C254.616 223.82 254.284 223.039 253.714 222.383C253.151 221.719 252.339 221.387 251.276 221.387C250.237 221.387 249.382 221.73 248.71 222.418C248.038 223.105 247.671 223.879 247.608 224.738L254.71 224.727ZM270.583 219.875L265.884 226.156L271.04 233H268.544L264.701 227.738L260.869 233H258.372L263.529 226.156L258.83 219.875H261.22L264.701 224.621L268.158 219.875H270.583ZM278.418 216.148V219.875H283.317V221.551H278.418V228.676C278.418 229.645 278.602 230.32 278.969 230.703C279.336 231.086 279.977 231.277 280.891 231.277H283.317V233H280.68C279.063 233 277.922 232.676 277.258 232.027C276.594 231.379 276.262 230.262 276.262 228.676V221.551H272.758V219.875H276.262V216.148H278.418ZM286.159 224.516H298.581V226.496H286.159V224.516ZM303.099 231.348V237.992H300.931V219.875H303.099V221.551C303.459 220.902 303.935 220.41 304.529 220.074C305.13 219.73 305.822 219.559 306.603 219.559C308.189 219.559 309.431 220.172 310.33 221.398C311.236 222.625 311.689 224.324 311.689 226.496C311.689 228.629 311.236 230.305 310.33 231.523C309.423 232.734 308.181 233.34 306.603 233.34C305.806 233.34 305.107 233.172 304.505 232.836C303.912 232.492 303.443 231.996 303.099 231.348ZM309.427 226.449C309.427 224.777 309.162 223.516 308.63 222.664C308.107 221.812 307.326 221.387 306.287 221.387C305.24 221.387 304.447 221.816 303.908 222.676C303.369 223.527 303.099 224.785 303.099 226.449C303.099 228.105 303.369 229.363 303.908 230.223C304.447 231.082 305.24 231.512 306.287 231.512C307.326 231.512 308.107 231.086 308.63 230.234C309.162 229.383 309.427 228.121 309.427 226.449ZM325.981 222.582C325.52 222.223 325.051 221.961 324.575 221.797C324.098 221.633 323.575 221.551 323.004 221.551C321.66 221.551 320.633 221.973 319.922 222.816C319.211 223.66 318.856 224.879 318.856 226.473V233H316.688V219.875H318.856V222.441C319.215 221.512 319.766 220.801 320.508 220.309C321.258 219.809 322.145 219.559 323.168 219.559C323.7 219.559 324.196 219.625 324.657 219.758C325.118 219.891 325.559 220.098 325.981 220.379V222.582ZM329.89 219.922H335.409V231.324H339.687V233H328.976V231.324H333.253V221.598H329.89V219.922ZM333.253 214.824H335.409V217.543H333.253V214.824ZM347.849 221.211C348.115 220.648 348.451 220.234 348.857 219.969C349.271 219.695 349.767 219.559 350.345 219.559C351.4 219.559 352.142 219.969 352.572 220.789C353.01 221.602 353.228 223.137 353.228 225.395V233H351.26V225.488C351.26 223.637 351.154 222.488 350.943 222.043C350.74 221.59 350.365 221.363 349.818 221.363C349.193 221.363 348.763 221.605 348.529 222.09C348.302 222.566 348.189 223.699 348.189 225.488V233H346.22V225.488C346.22 223.613 346.107 222.457 345.881 222.02C345.662 221.582 345.263 221.363 344.685 221.363C344.115 221.363 343.717 221.605 343.49 222.09C343.271 222.566 343.162 223.699 343.162 225.488V233H341.205V219.875H343.162V221C343.42 220.531 343.74 220.176 344.123 219.934C344.513 219.684 344.955 219.559 345.447 219.559C346.041 219.559 346.533 219.695 346.924 219.969C347.322 220.242 347.631 220.656 347.849 221.211ZM361.895 226.402H361.18C359.922 226.402 358.973 226.625 358.332 227.07C357.7 227.508 357.383 228.164 357.383 229.039C357.383 229.828 357.622 230.441 358.098 230.879C358.575 231.316 359.235 231.535 360.079 231.535C361.266 231.535 362.2 231.125 362.879 230.305C363.559 229.477 363.903 228.336 363.911 226.883V226.402H361.895ZM366.079 225.512V233H363.911V231.055C363.45 231.836 362.868 232.414 362.165 232.789C361.469 233.156 360.622 233.34 359.622 233.34C358.286 233.34 357.219 232.965 356.422 232.215C355.625 231.457 355.227 230.445 355.227 229.18C355.227 227.719 355.715 226.609 356.692 225.852C357.676 225.094 359.118 224.715 361.016 224.715H363.911V224.375C363.903 223.328 363.637 222.57 363.114 222.102C362.59 221.625 361.754 221.387 360.606 221.387C359.872 221.387 359.129 221.492 358.379 221.703C357.629 221.914 356.899 222.223 356.188 222.629V220.473C356.985 220.168 357.747 219.941 358.473 219.793C359.207 219.637 359.918 219.559 360.606 219.559C361.692 219.559 362.618 219.719 363.383 220.039C364.157 220.359 364.782 220.84 365.258 221.48C365.555 221.871 365.766 222.355 365.891 222.934C366.016 223.504 366.079 224.363 366.079 225.512ZM380.945 222.582C380.484 222.223 380.015 221.961 379.538 221.797C379.062 221.633 378.538 221.551 377.968 221.551C376.624 221.551 375.597 221.973 374.886 222.816C374.175 223.66 373.82 224.879 373.82 226.473V233H371.652V219.875H373.82V222.441C374.179 221.512 374.73 220.801 375.472 220.309C376.222 219.809 377.109 219.559 378.132 219.559C378.663 219.559 379.159 219.625 379.62 219.758C380.081 219.891 380.523 220.098 380.945 220.379V222.582ZM391.205 228.781C390.846 229.695 390.389 230.898 389.834 232.391C389.06 234.453 388.541 235.711 388.275 236.164C387.916 236.773 387.467 237.23 386.928 237.535C386.389 237.84 385.76 237.992 385.041 237.992H383.307V236.188H384.584C385.217 236.188 385.713 236.004 386.072 235.637C386.432 235.27 386.889 234.32 387.443 232.789L382.369 219.875H384.654L388.545 230.141L392.377 219.875H394.662L391.205 228.781ZM396.087 224.516H408.508V226.496H396.087V224.516ZM420.035 220.332V222.441C419.417 222.082 418.796 221.812 418.171 221.633C417.546 221.453 416.91 221.363 416.261 221.363C415.285 221.363 414.554 221.523 414.07 221.844C413.593 222.156 413.355 222.637 413.355 223.285C413.355 223.871 413.535 224.309 413.894 224.598C414.253 224.887 415.148 225.168 416.577 225.441L417.445 225.605C418.515 225.809 419.324 226.215 419.87 226.824C420.425 227.434 420.702 228.227 420.702 229.203C420.702 230.5 420.242 231.516 419.32 232.25C418.398 232.977 417.117 233.34 415.476 233.34C414.827 233.34 414.148 233.27 413.437 233.129C412.726 232.996 411.956 232.793 411.128 232.52V230.293C411.933 230.707 412.702 231.02 413.437 231.23C414.171 231.434 414.867 231.535 415.523 231.535C416.476 231.535 417.214 231.344 417.738 230.961C418.261 230.57 418.523 230.027 418.523 229.332C418.523 228.332 417.566 227.641 415.652 227.258L415.558 227.234L414.749 227.07C413.507 226.828 412.601 226.422 412.031 225.852C411.46 225.273 411.175 224.488 411.175 223.496C411.175 222.238 411.601 221.27 412.452 220.59C413.304 219.902 414.519 219.559 416.097 219.559C416.8 219.559 417.476 219.625 418.124 219.758C418.773 219.883 419.41 220.074 420.035 220.332ZM429.568 216.148V219.875H434.467V221.551H429.568V228.676C429.568 229.645 429.752 230.32 430.119 230.703C430.486 231.086 431.127 231.277 432.041 231.277H434.467V233H431.83C430.213 233 429.072 232.676 428.408 232.027C427.744 231.379 427.412 230.262 427.412 228.676V221.551H423.908V219.875H427.412V216.148H429.568ZM449.649 222.582C449.188 222.223 448.72 221.961 448.243 221.797C447.766 221.633 447.243 221.551 446.673 221.551C445.329 221.551 444.302 221.973 443.591 222.816C442.88 223.66 442.524 224.879 442.524 226.473V233H440.356V219.875H442.524V222.441C442.884 221.512 443.434 220.801 444.177 220.309C444.927 219.809 445.813 219.559 446.837 219.559C447.368 219.559 447.864 219.625 448.325 219.758C448.786 219.891 449.227 220.098 449.649 220.379V222.582ZM457.074 221.387C455.98 221.387 455.152 221.812 454.589 222.664C454.027 223.516 453.746 224.777 453.746 226.449C453.746 228.113 454.027 229.375 454.589 230.234C455.152 231.086 455.98 231.512 457.074 231.512C458.175 231.512 459.007 231.086 459.57 230.234C460.132 229.375 460.414 228.113 460.414 226.449C460.414 224.777 460.132 223.516 459.57 222.664C459.007 221.812 458.175 221.387 457.074 221.387ZM457.074 219.559C458.894 219.559 460.285 220.148 461.246 221.328C462.214 222.508 462.699 224.215 462.699 226.449C462.699 228.691 462.218 230.402 461.257 231.582C460.296 232.754 458.902 233.34 457.074 233.34C455.253 233.34 453.863 232.754 452.902 231.582C451.941 230.402 451.46 228.691 451.46 226.449C451.46 224.215 451.941 222.508 452.902 221.328C453.863 220.148 455.253 219.559 457.074 219.559ZM475.912 224.867V233H473.744V224.867C473.744 223.688 473.537 222.82 473.123 222.266C472.709 221.711 472.061 221.434 471.178 221.434C470.17 221.434 469.393 221.793 468.846 222.512C468.307 223.223 468.037 224.246 468.037 225.582V233H465.881V219.875H468.037V221.844C468.42 221.094 468.94 220.527 469.596 220.145C470.252 219.754 471.03 219.559 471.928 219.559C473.264 219.559 474.26 220 474.916 220.883C475.58 221.758 475.912 223.086 475.912 224.867ZM487.392 226.332C487.392 224.715 487.126 223.488 486.595 222.652C486.071 221.809 485.306 221.387 484.298 221.387C483.243 221.387 482.438 221.809 481.884 222.652C481.329 223.488 481.052 224.715 481.052 226.332C481.052 227.949 481.329 229.184 481.884 230.035C482.446 230.879 483.259 231.301 484.321 231.301C485.313 231.301 486.071 230.875 486.595 230.023C487.126 229.172 487.392 227.941 487.392 226.332ZM489.548 232.156C489.548 234.125 489.083 235.617 488.153 236.633C487.224 237.648 485.856 238.156 484.052 238.156C483.458 238.156 482.837 238.102 482.188 237.992C481.54 237.883 480.892 237.723 480.243 237.512V235.379C481.009 235.738 481.704 236.004 482.329 236.176C482.954 236.348 483.528 236.434 484.052 236.434C485.216 236.434 486.063 236.117 486.595 235.484C487.126 234.852 487.392 233.848 487.392 232.473V232.379V230.914C487.048 231.648 486.579 232.195 485.985 232.555C485.392 232.914 484.669 233.094 483.817 233.094C482.286 233.094 481.063 232.48 480.149 231.254C479.235 230.027 478.778 228.387 478.778 226.332C478.778 224.27 479.235 222.625 480.149 221.398C481.063 220.172 482.286 219.559 483.817 219.559C484.661 219.559 485.376 219.727 485.962 220.062C486.548 220.398 487.024 220.918 487.392 221.621V219.922H489.548V232.156ZM492.273 224.516H504.695V226.496H492.273V224.516ZM513.045 226.402H512.33C511.073 226.402 510.123 226.625 509.483 227.07C508.85 227.508 508.534 228.164 508.534 229.039C508.534 229.828 508.772 230.441 509.248 230.879C509.725 231.316 510.385 231.535 511.229 231.535C512.416 231.535 513.35 231.125 514.03 230.305C514.709 229.477 515.053 228.336 515.061 226.883V226.402H513.045ZM517.229 225.512V233H515.061V231.055C514.6 231.836 514.018 232.414 513.315 232.789C512.62 233.156 511.772 233.34 510.772 233.34C509.436 233.34 508.37 232.965 507.573 232.215C506.776 231.457 506.377 230.445 506.377 229.18C506.377 227.719 506.866 226.609 507.842 225.852C508.827 225.094 510.268 224.715 512.166 224.715H515.061V224.375C515.053 223.328 514.788 222.57 514.264 222.102C513.741 221.625 512.905 221.387 511.756 221.387C511.022 221.387 510.28 221.492 509.53 221.703C508.78 221.914 508.049 222.223 507.338 222.629V220.473C508.135 220.168 508.897 219.941 509.623 219.793C510.358 219.637 511.069 219.559 511.756 219.559C512.842 219.559 513.768 219.719 514.534 220.039C515.307 220.359 515.932 220.84 516.409 221.48C516.705 221.871 516.916 222.355 517.041 222.934C517.166 223.504 517.229 224.363 517.229 225.512ZM530.993 232.332C530.415 232.668 529.818 232.918 529.2 233.082C528.591 233.254 527.966 233.34 527.325 233.34C525.294 233.34 523.704 232.73 522.556 231.512C521.415 230.293 520.845 228.605 520.845 226.449C520.845 224.293 521.415 222.605 522.556 221.387C523.704 220.168 525.294 219.559 527.325 219.559C527.958 219.559 528.575 219.641 529.177 219.805C529.778 219.969 530.384 220.223 530.993 220.566V222.828C530.423 222.32 529.849 221.953 529.271 221.727C528.7 221.5 528.052 221.387 527.325 221.387C525.974 221.387 524.935 221.824 524.208 222.699C523.482 223.574 523.118 224.824 523.118 226.449C523.118 228.066 523.482 229.316 524.208 230.199C524.943 231.074 525.982 231.512 527.325 231.512C528.075 231.512 528.747 231.398 529.341 231.172C529.935 230.938 530.485 230.578 530.993 230.094V232.332ZM539.496 216.148V219.875H544.394V221.551H539.496V228.676C539.496 229.645 539.68 230.32 540.047 230.703C540.414 231.086 541.055 231.277 541.969 231.277H544.394V233H541.758C540.14 233 539 232.676 538.336 232.027C537.672 231.379 537.34 230.262 537.34 228.676V221.551H533.836V219.875H537.34V216.148H539.496ZM549.745 219.922H555.264V231.324H559.542V233H548.831V231.324H553.108V221.598H549.745V219.922ZM553.108 214.824H555.264V217.543H553.108V214.824ZM560.954 219.875H563.193L567.001 230.891L570.822 219.875H573.06L568.396 233H565.618L560.954 219.875ZM586.648 225.359V226.414H577.309V226.484C577.246 228.273 577.586 229.559 578.328 230.34C579.078 231.121 580.133 231.512 581.492 231.512C582.18 231.512 582.898 231.402 583.648 231.184C584.398 230.965 585.199 230.633 586.051 230.188V232.332C585.23 232.668 584.438 232.918 583.672 233.082C582.914 233.254 582.18 233.34 581.469 233.34C579.43 233.34 577.836 232.73 576.688 231.512C575.539 230.285 574.965 228.598 574.965 226.449C574.965 224.355 575.527 222.684 576.652 221.434C577.777 220.184 579.277 219.559 581.152 219.559C582.824 219.559 584.141 220.125 585.102 221.258C586.07 222.391 586.586 223.758 586.648 225.359ZM584.492 224.727C584.398 223.82 584.066 223.039 583.496 222.383C582.934 221.719 582.121 221.387 581.059 221.387C580.02 221.387 579.164 221.73 578.492 222.418C577.82 223.105 577.453 223.879 577.391 224.738L584.492 224.727Z" fill="#1A1919"/>
<rect x="174.5" y="388.5" width="251" height="43" rx="3.5" fill="#EBEEEF"/>
<rect x="174.5" y="388.5" width="251" height="43" rx="3.5" stroke="#ABAEAF"/>
<path d="M190 400C190 398.895 190.895 398 192 398H212C213.105 398 214 398.895 214 400V420C214 421.105 213.105 422 212 422H192C190.895 422 190 421.105 190 420V400Z" fill="#686868"/>
<path d="M237.195 401.148V404.875H242.094V406.551H237.195V413.676C237.195 414.645 237.379 415.32 237.746 415.703C238.113 416.086 238.754 416.277 239.668 416.277H242.094V418H239.457C237.84 418 236.699 417.676 236.035 417.027C235.371 416.379 235.039 415.262 235.039 413.676V406.551H231.535V404.875H235.039V401.148H237.195ZM256.866 410.359V411.414H247.526V411.484C247.464 413.273 247.803 414.559 248.546 415.34C249.296 416.121 250.35 416.512 251.71 416.512C252.397 416.512 253.116 416.402 253.866 416.184C254.616 415.965 255.417 415.633 256.268 415.188V417.332C255.448 417.668 254.655 417.918 253.889 418.082C253.132 418.254 252.397 418.34 251.686 418.34C249.647 418.34 248.053 417.73 246.905 416.512C245.757 415.285 245.182 413.598 245.182 411.449C245.182 409.355 245.745 407.684 246.87 406.434C247.995 405.184 249.495 404.559 251.37 404.559C253.042 404.559 254.358 405.125 255.319 406.258C256.288 407.391 256.803 408.758 256.866 410.359ZM254.71 409.727C254.616 408.82 254.284 408.039 253.714 407.383C253.151 406.719 252.339 406.387 251.276 406.387C250.237 406.387 249.382 406.73 248.71 407.418C248.038 408.105 247.671 408.879 247.608 409.738L254.71 409.727ZM270.583 404.875L265.884 411.156L271.04 418H268.544L264.701 412.738L260.869 418H258.372L263.529 411.156L258.83 404.875H261.22L264.701 409.621L268.158 404.875H270.583ZM278.418 401.148V404.875H283.317V406.551H278.418V413.676C278.418 414.645 278.602 415.32 278.969 415.703C279.336 416.086 279.977 416.277 280.891 416.277H283.317V418H280.68C279.063 418 277.922 417.676 277.258 417.027C276.594 416.379 276.262 415.262 276.262 413.676V406.551H272.758V404.875H276.262V401.148H278.418ZM286.159 409.516H298.581V411.496H286.159V409.516ZM308.759 406.551V399.766H310.916V418H308.759V416.348C308.4 416.996 307.92 417.492 307.318 417.836C306.724 418.172 306.037 418.34 305.255 418.34C303.67 418.34 302.42 417.727 301.505 416.5C300.599 415.266 300.146 413.566 300.146 411.402C300.146 409.27 300.603 407.598 301.517 406.387C302.431 405.168 303.677 404.559 305.255 404.559C306.045 404.559 306.74 404.73 307.341 405.074C307.943 405.41 308.416 405.902 308.759 406.551ZM302.42 411.449C302.42 413.121 302.685 414.383 303.216 415.234C303.748 416.086 304.533 416.512 305.572 416.512C306.611 416.512 307.4 416.082 307.939 415.223C308.486 414.363 308.759 413.105 308.759 411.449C308.759 409.785 308.486 408.527 307.939 407.676C307.4 406.816 306.611 406.387 305.572 406.387C304.533 406.387 303.748 406.812 303.216 407.664C302.685 408.516 302.42 409.777 302.42 411.449ZM316.149 404.922H321.668V416.324H325.946V418H315.235V416.324H319.512V406.598H316.149V404.922ZM319.512 399.824H321.668V402.543H319.512V399.824ZM337.589 405.332V407.441C336.972 407.082 336.351 406.812 335.726 406.633C335.101 406.453 334.464 406.363 333.815 406.363C332.839 406.363 332.108 406.523 331.624 406.844C331.147 407.156 330.909 407.637 330.909 408.285C330.909 408.871 331.089 409.309 331.448 409.598C331.808 409.887 332.702 410.168 334.132 410.441L334.999 410.605C336.069 410.809 336.878 411.215 337.425 411.824C337.98 412.434 338.257 413.227 338.257 414.203C338.257 415.5 337.796 416.516 336.874 417.25C335.952 417.977 334.671 418.34 333.03 418.34C332.382 418.34 331.702 418.27 330.991 418.129C330.28 417.996 329.511 417.793 328.683 417.52V415.293C329.487 415.707 330.257 416.02 330.991 416.23C331.726 416.434 332.421 416.535 333.077 416.535C334.03 416.535 334.769 416.344 335.292 415.961C335.815 415.57 336.077 415.027 336.077 414.332C336.077 413.332 335.12 412.641 333.206 412.258L333.112 412.234L332.304 412.07C331.062 411.828 330.155 411.422 329.585 410.852C329.015 410.273 328.73 409.488 328.73 408.496C328.73 407.238 329.155 406.27 330.007 405.59C330.858 404.902 332.073 404.559 333.651 404.559C334.355 404.559 335.03 404.625 335.679 404.758C336.327 404.883 336.964 405.074 337.589 405.332ZM348.154 411.402H347.439C346.181 411.402 345.232 411.625 344.592 412.07C343.959 412.508 343.642 413.164 343.642 414.039C343.642 414.828 343.881 415.441 344.357 415.879C344.834 416.316 345.494 416.535 346.338 416.535C347.525 416.535 348.459 416.125 349.138 415.305C349.818 414.477 350.162 413.336 350.17 411.883V411.402H348.154ZM352.338 410.512V418H350.17V416.055C349.709 416.836 349.127 417.414 348.424 417.789C347.728 418.156 346.881 418.34 345.881 418.34C344.545 418.34 343.478 417.965 342.681 417.215C341.885 416.457 341.486 415.445 341.486 414.18C341.486 412.719 341.974 411.609 342.951 410.852C343.935 410.094 345.377 409.715 347.275 409.715H350.17V409.375C350.162 408.328 349.896 407.57 349.373 407.102C348.849 406.625 348.013 406.387 346.865 406.387C346.131 406.387 345.388 406.492 344.638 406.703C343.888 406.914 343.158 407.223 342.447 407.629V405.473C343.244 405.168 344.006 404.941 344.732 404.793C345.467 404.637 346.177 404.559 346.865 404.559C347.951 404.559 348.877 404.719 349.642 405.039C350.416 405.359 351.041 405.84 351.517 406.48C351.814 406.871 352.025 407.355 352.15 407.934C352.275 408.504 352.338 409.363 352.338 410.512ZM364.426 411.449C364.426 409.777 364.161 408.516 363.629 407.664C363.098 406.812 362.313 406.387 361.274 406.387C360.227 406.387 359.434 406.816 358.895 407.676C358.356 408.527 358.086 409.785 358.086 411.449C358.086 413.105 358.356 414.363 358.895 415.223C359.434 416.082 360.227 416.512 361.274 416.512C362.313 416.512 363.098 416.086 363.629 415.234C364.161 414.383 364.426 413.121 364.426 411.449ZM358.086 406.551C358.43 405.91 358.903 405.418 359.504 405.074C360.114 404.73 360.817 404.559 361.614 404.559C363.192 404.559 364.434 405.168 365.34 406.387C366.247 407.598 366.7 409.27 366.7 411.402C366.7 413.566 366.243 415.266 365.329 416.5C364.422 417.727 363.176 418.34 361.59 418.34C360.809 418.34 360.118 418.172 359.516 417.836C358.922 417.492 358.446 416.996 358.086 416.348V418H355.93V399.766H358.086V406.551ZM375.835 413.254C375.835 414.223 376.011 414.953 376.363 415.445C376.722 415.938 377.249 416.184 377.945 416.184H380.464V418H377.734C376.445 418 375.445 417.59 374.734 416.77C374.03 415.941 373.679 414.77 373.679 413.254V401.383H370.222V399.695H375.835V413.254ZM394.275 410.359V411.414H384.935V411.484C384.873 413.273 385.213 414.559 385.955 415.34C386.705 416.121 387.76 416.512 389.119 416.512C389.807 416.512 390.525 416.402 391.275 416.184C392.025 415.965 392.826 415.633 393.678 415.188V417.332C392.857 417.668 392.064 417.918 391.299 418.082C390.541 418.254 389.807 418.34 389.096 418.34C387.057 418.34 385.463 417.73 384.314 416.512C383.166 415.285 382.592 413.598 382.592 411.449C382.592 409.355 383.154 407.684 384.279 406.434C385.404 405.184 386.904 404.559 388.779 404.559C390.451 404.559 391.768 405.125 392.728 406.258C393.697 407.391 394.213 408.758 394.275 410.359ZM392.119 409.727C392.025 408.82 391.693 408.039 391.123 407.383C390.56 406.719 389.748 406.387 388.685 406.387C387.646 406.387 386.791 406.73 386.119 407.418C385.447 408.105 385.08 408.879 385.018 409.738L392.119 409.727ZM404.946 406.551V399.766H407.102V418H404.946V416.348C404.587 416.996 404.106 417.492 403.505 417.836C402.911 418.172 402.223 418.34 401.442 418.34C399.856 418.34 398.606 417.727 397.692 416.5C396.786 415.266 396.333 413.566 396.333 411.402C396.333 409.27 396.79 407.598 397.704 406.387C398.618 405.168 399.864 404.559 401.442 404.559C402.231 404.559 402.926 404.73 403.528 405.074C404.13 405.41 404.602 405.902 404.946 406.551ZM398.606 411.449C398.606 413.121 398.872 414.383 399.403 415.234C399.934 416.086 400.719 416.512 401.758 416.512C402.798 416.512 403.587 416.082 404.126 415.223C404.673 414.363 404.946 413.105 404.946 411.449C404.946 409.785 404.673 408.527 404.126 407.676C403.587 406.816 402.798 406.387 401.758 406.387C400.719 406.387 399.934 406.812 399.403 407.664C398.872 408.516 398.606 409.777 398.606 411.449Z" fill="#1A1919"/>
<rect x="174.5" y="50.5" width="333" height="43" rx="3.5" fill="#EBEEEF"/>
<rect x="174.5" y="50.5" width="333" height="43" rx="3.5" stroke="#ABAEAF"/>
<path d="M190 62C190 60.8954 190.895 60 192 60H212C213.105 60 214 60.8954 214 62V82C214 83.1046 213.105 84 212 84H192C190.895 84 190 83.1046 190 82V62Z" fill="#6F4AB8"/>
<path d="M237.195 63.1484V66.875H242.094V68.5508H237.195V75.6758C237.195 76.6445 237.379 77.3203 237.746 77.7031C238.113 78.0859 238.754 78.2773 239.668 78.2773H242.094V80H239.457C237.84 80 236.699 79.6758 236.035 79.0273C235.371 78.3789 235.039 77.2617 235.039 75.6758V68.5508H231.535V66.875H235.039V63.1484H237.195ZM256.866 72.3594V73.4141H247.526V73.4844C247.464 75.2734 247.803 76.5586 248.546 77.3398C249.296 78.1211 250.35 78.5117 251.71 78.5117C252.397 78.5117 253.116 78.4023 253.866 78.1836C254.616 77.9648 255.417 77.6328 256.268 77.1875V79.332C255.448 79.668 254.655 79.918 253.889 80.082C253.132 80.2539 252.397 80.3398 251.686 80.3398C249.647 80.3398 248.053 79.7305 246.905 78.5117C245.757 77.2852 245.182 75.5977 245.182 73.4492C245.182 71.3555 245.745 69.6836 246.87 68.4336C247.995 67.1836 249.495 66.5586 251.37 66.5586C253.042 66.5586 254.358 67.125 255.319 68.2578C256.288 69.3906 256.803 70.7578 256.866 72.3594ZM254.71 71.7266C254.616 70.8203 254.284 70.0391 253.714 69.3828C253.151 68.7188 252.339 68.3867 251.276 68.3867C250.237 68.3867 249.382 68.7305 248.71 69.418C248.038 70.1055 247.671 70.8789 247.608 71.7383L254.71 71.7266ZM270.583 66.875L265.884 73.1562L271.04 80H268.544L264.701 74.7383L260.869 80H258.372L263.529 73.1562L258.83 66.875H261.22L264.701 71.6211L268.158 66.875H270.583ZM278.418 63.1484V66.875H283.317V68.5508H278.418V75.6758C278.418 76.6445 278.602 77.3203 278.969 77.7031C279.336 78.0859 279.977 78.2773 280.891 78.2773H283.317V80H280.68C279.063 80 277.922 79.6758 277.258 79.0273C276.594 78.3789 276.262 77.2617 276.262 75.6758V68.5508H272.758V66.875H276.262V63.1484H278.418ZM286.159 71.5156H298.581V73.4961H286.159V71.5156ZM303.099 78.3477V84.9922H300.931V66.875H303.099V68.5508C303.459 67.9023 303.935 67.4102 304.529 67.0742C305.13 66.7305 305.822 66.5586 306.603 66.5586C308.189 66.5586 309.431 67.1719 310.33 68.3984C311.236 69.625 311.689 71.3242 311.689 73.4961C311.689 75.6289 311.236 77.3047 310.33 78.5234C309.423 79.7344 308.181 80.3398 306.603 80.3398C305.806 80.3398 305.107 80.1719 304.505 79.8359C303.912 79.4922 303.443 78.9961 303.099 78.3477ZM309.427 73.4492C309.427 71.7773 309.162 70.5156 308.63 69.6641C308.107 68.8125 307.326 68.3867 306.287 68.3867C305.24 68.3867 304.447 68.8164 303.908 69.6758C303.369 70.5273 303.099 71.7852 303.099 73.4492C303.099 75.1055 303.369 76.3633 303.908 77.2227C304.447 78.082 305.24 78.5117 306.287 78.5117C307.326 78.5117 308.107 78.0859 308.63 77.2344C309.162 76.3828 309.427 75.1211 309.427 73.4492ZM325.981 69.582C325.52 69.2227 325.051 68.9609 324.575 68.7969C324.098 68.6328 323.575 68.5508 323.004 68.5508C321.66 68.5508 320.633 68.9727 319.922 69.8164C319.211 70.6602 318.856 71.8789 318.856 73.4727V80H316.688V66.875H318.856V69.4414C319.215 68.5117 319.766 67.8008 320.508 67.3086C321.258 66.8086 322.145 66.5586 323.168 66.5586C323.7 66.5586 324.196 66.625 324.657 66.7578C325.118 66.8906 325.559 67.0977 325.981 67.3789V69.582ZM329.89 66.9219H335.409V78.3242H339.687V80H328.976V78.3242H333.253V68.5977H329.89V66.9219ZM333.253 61.8242H335.409V64.543H333.253V61.8242ZM347.849 68.2109C348.115 67.6484 348.451 67.2344 348.857 66.9688C349.271 66.6953 349.767 66.5586 350.345 66.5586C351.4 66.5586 352.142 66.9688 352.572 67.7891C353.01 68.6016 353.228 70.1367 353.228 72.3945V80H351.26V72.4883C351.26 70.6367 351.154 69.4883 350.943 69.043C350.74 68.5898 350.365 68.3633 349.818 68.3633C349.193 68.3633 348.763 68.6055 348.529 69.0898C348.302 69.5664 348.189 70.6992 348.189 72.4883V80H346.22V72.4883C346.22 70.6133 346.107 69.457 345.881 69.0195C345.662 68.582 345.263 68.3633 344.685 68.3633C344.115 68.3633 343.717 68.6055 343.49 69.0898C343.271 69.5664 343.162 70.6992 343.162 72.4883V80H341.205V66.875H343.162V68C343.42 67.5312 343.74 67.1758 344.123 66.9336C344.513 66.6836 344.955 66.5586 345.447 66.5586C346.041 66.5586 346.533 66.6953 346.924 66.9688C347.322 67.2422 347.631 67.6562 347.849 68.2109ZM361.895 73.4023H361.18C359.922 73.4023 358.973 73.625 358.332 74.0703C357.7 74.5078 357.383 75.1641 357.383 76.0391C357.383 76.8281 357.622 77.4414 358.098 77.8789C358.575 78.3164 359.235 78.5352 360.079 78.5352C361.266 78.5352 362.2 78.125 362.879 77.3047C363.559 76.4766 363.903 75.3359 363.911 73.8828V73.4023H361.895ZM366.079 72.5117V80H363.911V78.0547C363.45 78.8359 362.868 79.4141 362.165 79.7891C361.469 80.1562 360.622 80.3398 359.622 80.3398C358.286 80.3398 357.219 79.9648 356.422 79.2148C355.625 78.457 355.227 77.4453 355.227 76.1797C355.227 74.7188 355.715 73.6094 356.692 72.8516C357.676 72.0938 359.118 71.7148 361.016 71.7148H363.911V71.375C363.903 70.3281 363.637 69.5703 363.114 69.1016C362.59 68.625 361.754 68.3867 360.606 68.3867C359.872 68.3867 359.129 68.4922 358.379 68.7031C357.629 68.9141 356.899 69.2227 356.188 69.6289V67.4727C356.985 67.168 357.747 66.9414 358.473 66.793C359.207 66.6367 359.918 66.5586 360.606 66.5586C361.692 66.5586 362.618 66.7188 363.383 67.0391C364.157 67.3594 364.782 67.8398 365.258 68.4805C365.555 68.8711 365.766 69.3555 365.891 69.9336C366.016 70.5039 366.079 71.3633 366.079 72.5117ZM380.945 69.582C380.484 69.2227 380.015 68.9609 379.538 68.7969C379.062 68.6328 378.538 68.5508 377.968 68.5508C376.624 68.5508 375.597 68.9727 374.886 69.8164C374.175 70.6602 373.82 71.8789 373.82 73.4727V80H371.652V66.875H373.82V69.4414C374.179 68.5117 374.73 67.8008 375.472 67.3086C376.222 66.8086 377.109 66.5586 378.132 66.5586C378.663 66.5586 379.159 66.625 379.62 66.7578C380.081 66.8906 380.523 67.0977 380.945 67.3789V69.582ZM391.205 75.7812C390.846 76.6953 390.389 77.8984 389.834 79.3906C389.06 81.4531 388.541 82.7109 388.275 83.1641C387.916 83.7734 387.467 84.2305 386.928 84.5352C386.389 84.8398 385.76 84.9922 385.041 84.9922H383.307V83.1875H384.584C385.217 83.1875 385.713 83.0039 386.072 82.6367C386.432 82.2695 386.889 81.3203 387.443 79.7891L382.369 66.875H384.654L388.545 77.1406L392.377 66.875H394.662L391.205 75.7812ZM396.087 71.5156H408.508V73.4961H396.087V71.5156ZM420.035 67.332V69.4414C419.417 69.082 418.796 68.8125 418.171 68.6328C417.546 68.4531 416.91 68.3633 416.261 68.3633C415.285 68.3633 414.554 68.5234 414.07 68.8438C413.593 69.1562 413.355 69.6367 413.355 70.2852C413.355 70.8711 413.535 71.3086 413.894 71.5977C414.253 71.8867 415.148 72.168 416.577 72.4414L417.445 72.6055C418.515 72.8086 419.324 73.2148 419.87 73.8242C420.425 74.4336 420.702 75.2266 420.702 76.2031C420.702 77.5 420.242 78.5156 419.32 79.25C418.398 79.9766 417.117 80.3398 415.476 80.3398C414.827 80.3398 414.148 80.2695 413.437 80.1289C412.726 79.9961 411.956 79.793 411.128 79.5195V77.293C411.933 77.707 412.702 78.0195 413.437 78.2305C414.171 78.4336 414.867 78.5352 415.523 78.5352C416.476 78.5352 417.214 78.3438 417.738 77.9609C418.261 77.5703 418.523 77.0273 418.523 76.332C418.523 75.332 417.566 74.6406 415.652 74.2578L415.558 74.2344L414.749 74.0703C413.507 73.8281 412.601 73.4219 412.031 72.8516C411.46 72.2734 411.175 71.4883 411.175 70.4961C411.175 69.2383 411.601 68.2695 412.452 67.5898C413.304 66.9023 414.519 66.5586 416.097 66.5586C416.8 66.5586 417.476 66.625 418.124 66.7578C418.773 66.8828 419.41 67.0742 420.035 67.332ZM429.568 63.1484V66.875H434.467V68.5508H429.568V75.6758C429.568 76.6445 429.752 77.3203 430.119 77.7031C430.486 78.0859 431.127 78.2773 432.041 78.2773H434.467V80H431.83C430.213 80 429.072 79.6758 428.408 79.0273C427.744 78.3789 427.412 77.2617 427.412 75.6758V68.5508H423.908V66.875H427.412V63.1484H429.568ZM449.649 69.582C449.188 69.2227 448.72 68.9609 448.243 68.7969C447.766 68.6328 447.243 68.5508 446.673 68.5508C445.329 68.5508 444.302 68.9727 443.591 69.8164C442.88 70.6602 442.524 71.8789 442.524 73.4727V80H440.356V66.875H442.524V69.4414C442.884 68.5117 443.434 67.8008 444.177 67.3086C444.927 66.8086 445.813 66.5586 446.837 66.5586C447.368 66.5586 447.864 66.625 448.325 66.7578C448.786 66.8906 449.227 67.0977 449.649 67.3789V69.582ZM457.074 68.3867C455.98 68.3867 455.152 68.8125 454.589 69.6641C454.027 70.5156 453.746 71.7773 453.746 73.4492C453.746 75.1133 454.027 76.375 454.589 77.2344C455.152 78.0859 455.98 78.5117 457.074 78.5117C458.175 78.5117 459.007 78.0859 459.57 77.2344C460.132 76.375 460.414 75.1133 460.414 73.4492C460.414 71.7773 460.132 70.5156 459.57 69.6641C459.007 68.8125 458.175 68.3867 457.074 68.3867ZM457.074 66.5586C458.894 66.5586 460.285 67.1484 461.246 68.3281C462.214 69.5078 462.699 71.2148 462.699 73.4492C462.699 75.6914 462.218 77.4023 461.257 78.582C460.296 79.7539 458.902 80.3398 457.074 80.3398C455.253 80.3398 453.863 79.7539 452.902 78.582C451.941 77.4023 451.46 75.6914 451.46 73.4492C451.46 71.2148 451.941 69.5078 452.902 68.3281C453.863 67.1484 455.253 66.5586 457.074 66.5586ZM475.912 71.8672V80H473.744V71.8672C473.744 70.6875 473.537 69.8203 473.123 69.2656C472.709 68.7109 472.061 68.4336 471.178 68.4336C470.17 68.4336 469.393 68.793 468.846 69.5117C468.307 70.2227 468.037 71.2461 468.037 72.582V80H465.881V66.875H468.037V68.8438C468.42 68.0938 468.94 67.5273 469.596 67.1445C470.252 66.7539 471.03 66.5586 471.928 66.5586C473.264 66.5586 474.26 67 474.916 67.8828C475.58 68.7578 475.912 70.0859 475.912 71.8672ZM487.392 73.332C487.392 71.7148 487.126 70.4883 486.595 69.6523C486.071 68.8086 485.306 68.3867 484.298 68.3867C483.243 68.3867 482.438 68.8086 481.884 69.6523C481.329 70.4883 481.052 71.7148 481.052 73.332C481.052 74.9492 481.329 76.1836 481.884 77.0352C482.446 77.8789 483.259 78.3008 484.321 78.3008C485.313 78.3008 486.071 77.875 486.595 77.0234C487.126 76.1719 487.392 74.9414 487.392 73.332ZM489.548 79.1562C489.548 81.125 489.083 82.6172 488.153 83.6328C487.224 84.6484 485.856 85.1562 484.052 85.1562C483.458 85.1562 482.837 85.1016 482.188 84.9922C481.54 84.8828 480.892 84.7227 480.243 84.5117V82.3789C481.009 82.7383 481.704 83.0039 482.329 83.1758C482.954 83.3477 483.528 83.4336 484.052 83.4336C485.216 83.4336 486.063 83.1172 486.595 82.4844C487.126 81.8516 487.392 80.8477 487.392 79.4727V79.3789V77.9141C487.048 78.6484 486.579 79.1953 485.985 79.5547C485.392 79.9141 484.669 80.0938 483.817 80.0938C482.286 80.0938 481.063 79.4805 480.149 78.2539C479.235 77.0273 478.778 75.3867 478.778 73.332C478.778 71.2695 479.235 69.625 480.149 68.3984C481.063 67.1719 482.286 66.5586 483.817 66.5586C484.661 66.5586 485.376 66.7266 485.962 67.0625C486.548 67.3984 487.024 67.918 487.392 68.6211V66.9219H489.548V79.1562Z" fill="#1A1919"/>
<rect y="14" width="152" height="4" rx="0.8" fill="#977ECC"/>
<path d="M6.44531 33.5859C5.8151 33.5859 5.2474 33.6953 4.74219 33.9141C4.24219 34.1276 3.8151 34.4401 3.46094 34.8516C3.11198 35.2578 2.84375 35.75 2.65625 36.3281C2.46875 36.9062 2.375 37.5573 2.375 38.2812C2.375 39.2396 2.52344 40.0729 2.82031 40.7812C3.1224 41.4844 3.57031 42.0286 4.16406 42.4141C4.76302 42.7995 5.51042 42.9922 6.40625 42.9922C6.91667 42.9922 7.39583 42.9505 7.84375 42.8672C8.29688 42.7786 8.73698 42.6693 9.16406 42.5391V43.6953C8.7474 43.8516 8.3099 43.9661 7.85156 44.0391C7.39323 44.1172 6.84896 44.1562 6.21875 44.1562C5.05729 44.1562 4.08594 43.9167 3.30469 43.4375C2.52865 42.9531 1.94531 42.2708 1.55469 41.3906C1.16927 40.5104 0.976562 39.4714 0.976562 38.2734C0.976562 37.4089 1.09635 36.6198 1.33594 35.9062C1.58073 35.1875 1.9349 34.5677 2.39844 34.0469C2.86719 33.526 3.4401 33.125 4.11719 32.8438C4.79948 32.5573 5.58073 32.4141 6.46094 32.4141C7.03906 32.4141 7.59635 32.4714 8.13281 32.5859C8.66927 32.7005 9.15365 32.8646 9.58594 33.0781L9.05469 34.2031C8.6901 34.0365 8.28906 33.8932 7.85156 33.7734C7.41927 33.6484 6.95052 33.5859 6.44531 33.5859ZM18.9681 39.7031C18.9681 40.4062 18.877 41.0339 18.6947 41.5859C18.5124 42.138 18.2494 42.6042 17.9056 42.9844C17.5619 43.3646 17.1452 43.6562 16.6556 43.8594C16.1713 44.0573 15.6218 44.1562 15.0072 44.1562C14.4343 44.1562 13.9082 44.0573 13.4291 43.8594C12.9551 43.6562 12.5436 43.3646 12.1947 42.9844C11.8509 42.6042 11.5827 42.138 11.39 41.5859C11.2025 41.0339 11.1088 40.4062 11.1088 39.7031C11.1088 38.7656 11.2676 37.9688 11.5853 37.3125C11.903 36.651 12.3561 36.1484 12.9447 35.8047C13.5384 35.4557 14.2442 35.2812 15.0619 35.2812C15.8431 35.2812 16.5254 35.4557 17.1088 35.8047C17.6973 36.1536 18.153 36.6589 18.4759 37.3203C18.8041 37.9766 18.9681 38.7708 18.9681 39.7031ZM12.4525 39.7031C12.4525 40.3906 12.5436 40.987 12.7259 41.4922C12.9082 41.9974 13.1895 42.388 13.5697 42.6641C13.9499 42.9401 14.4395 43.0781 15.0384 43.0781C15.6322 43.0781 16.1192 42.9401 16.4994 42.6641C16.8848 42.388 17.1686 41.9974 17.3509 41.4922C17.5332 40.987 17.6244 40.3906 17.6244 39.7031C17.6244 39.0208 17.5332 38.4323 17.3509 37.9375C17.1686 37.4375 16.8874 37.0521 16.5072 36.7812C16.127 36.5104 15.6348 36.375 15.0306 36.375C14.14 36.375 13.4864 36.6693 13.0697 37.2578C12.6582 37.8464 12.4525 38.6615 12.4525 39.7031ZM30.6472 35.2812C31.5899 35.2812 32.3008 35.5286 32.78 36.0234C33.2592 36.513 33.4988 37.3021 33.4988 38.3906V44H32.2175V38.4531C32.2175 37.7604 32.0665 37.2422 31.7644 36.8984C31.4675 36.5495 31.0248 36.375 30.4363 36.375C29.6081 36.375 29.0066 36.6146 28.6316 37.0938C28.2566 37.5729 28.0691 38.2786 28.0691 39.2109V44H26.78V38.4531C26.78 37.9896 26.7123 37.6042 26.5769 37.2969C26.4467 36.9896 26.2488 36.7604 25.9831 36.6094C25.7227 36.4531 25.392 36.375 24.9909 36.375C24.4232 36.375 23.9675 36.4922 23.6238 36.7266C23.28 36.9609 23.03 37.3099 22.8738 37.7734C22.7227 38.2318 22.6472 38.7969 22.6472 39.4688V44H21.3503V35.4375H22.3972L22.5925 36.6484H22.6628C22.8347 36.3516 23.0508 36.1016 23.3113 35.8984C23.5717 35.6953 23.8633 35.5417 24.1863 35.4375C24.5092 35.3333 24.8529 35.2812 25.2175 35.2812C25.8685 35.2812 26.4128 35.4036 26.8503 35.6484C27.293 35.888 27.6133 36.2552 27.8113 36.75H27.8816C28.1628 36.2552 28.5482 35.888 29.0378 35.6484C29.5274 35.4036 30.0639 35.2812 30.6472 35.2812ZM40.3262 35.2812C41.394 35.2812 42.2455 35.6484 42.8809 36.3828C43.5164 37.1172 43.8341 38.2214 43.8341 39.6953C43.8341 40.6693 43.6882 41.487 43.3966 42.1484C43.1049 42.8099 42.6934 43.3099 42.1622 43.6484C41.6361 43.987 41.0137 44.1562 40.295 44.1562C39.8419 44.1562 39.4434 44.0964 39.0997 43.9766C38.7559 43.8568 38.4617 43.6953 38.2169 43.4922C37.9721 43.2891 37.769 43.0677 37.6075 42.8281H37.5137C37.5294 43.0312 37.5476 43.276 37.5684 43.5625C37.5945 43.849 37.6075 44.099 37.6075 44.3125V47.8281H36.3028V35.4375H37.3731L37.545 36.7031H37.6075C37.7742 36.4427 37.9773 36.2057 38.2169 35.9922C38.4565 35.7734 38.7481 35.6016 39.0919 35.4766C39.4408 35.3464 39.8523 35.2812 40.3262 35.2812ZM40.0997 36.375C39.5059 36.375 39.0268 36.4896 38.6622 36.7188C38.3028 36.9479 38.0398 37.2917 37.8731 37.75C37.7065 38.2031 37.6179 38.7734 37.6075 39.4609V39.7109C37.6075 40.4349 37.6856 41.0469 37.8419 41.5469C38.0033 42.0469 38.2664 42.4271 38.6309 42.6875C39.0007 42.9479 39.4955 43.0781 40.1153 43.0781C40.6466 43.0781 41.0893 42.9349 41.4434 42.6484C41.7976 42.362 42.0606 41.9635 42.2325 41.4531C42.4096 40.9375 42.4981 40.3464 42.4981 39.6797C42.4981 38.6693 42.3002 37.8672 41.9044 37.2734C41.5137 36.6745 40.9122 36.375 40.0997 36.375ZM47.5444 44H46.2397V31.8438H47.5444V44ZM53.7234 35.2812C54.4526 35.2812 55.0776 35.4427 55.5984 35.7656C56.1193 36.0885 56.5177 36.5417 56.7938 37.125C57.0698 37.7031 57.2078 38.3802 57.2078 39.1562V39.9609H51.2938C51.3094 40.9661 51.5594 41.7318 52.0438 42.2578C52.5281 42.7839 53.2104 43.0469 54.0906 43.0469C54.6323 43.0469 55.1115 42.9974 55.5281 42.8984C55.9448 42.7995 56.3771 42.6536 56.825 42.4609V43.6016C56.3927 43.7943 55.963 43.9349 55.5359 44.0234C55.1141 44.112 54.6141 44.1562 54.0359 44.1562C53.213 44.1562 52.4943 43.9896 51.8797 43.6562C51.2703 43.3177 50.7964 42.8229 50.4578 42.1719C50.1193 41.5208 49.95 40.724 49.95 39.7812C49.95 38.8594 50.1036 38.0625 50.4109 37.3906C50.7234 36.7135 51.1609 36.1927 51.7234 35.8281C52.2911 35.4635 52.9578 35.2812 53.7234 35.2812ZM53.7078 36.3438C53.0151 36.3438 52.463 36.5703 52.0516 37.0234C51.6401 37.4766 51.3953 38.1094 51.3172 38.9219H55.8484C55.8432 38.4115 55.7625 37.9635 55.6063 37.5781C55.4552 37.1875 55.2234 36.8854 54.9109 36.6719C54.5984 36.4531 54.1974 36.3438 53.7078 36.3438ZM62.3166 43.0938C62.5301 43.0938 62.7489 43.0755 62.9728 43.0391C63.1968 43.0026 63.3791 42.9583 63.5197 42.9062V43.9141C63.3686 43.9818 63.1577 44.0391 62.8869 44.0859C62.6213 44.1328 62.3608 44.1562 62.1056 44.1562C61.6525 44.1562 61.241 44.0781 60.8713 43.9219C60.5015 43.7604 60.2046 43.4896 59.9806 43.1094C59.7619 42.7292 59.6525 42.2031 59.6525 41.5312V36.4531H58.4338V35.8203L59.6603 35.3125L60.1759 33.4531H60.9572V35.4375H63.465V36.4531H60.9572V41.4922C60.9572 42.0286 61.0796 42.4297 61.3244 42.6953C61.5744 42.9609 61.9051 43.0938 62.3166 43.0938ZM68.6909 35.2812C69.4201 35.2812 70.0451 35.4427 70.5659 35.7656C71.0868 36.0885 71.4852 36.5417 71.7613 37.125C72.0373 37.7031 72.1753 38.3802 72.1753 39.1562V39.9609H66.2613C66.2769 40.9661 66.5269 41.7318 67.0113 42.2578C67.4956 42.7839 68.1779 43.0469 69.0581 43.0469C69.5998 43.0469 70.079 42.9974 70.4956 42.8984C70.9123 42.7995 71.3446 42.6536 71.7925 42.4609V43.6016C71.3602 43.7943 70.9305 43.9349 70.5034 44.0234C70.0816 44.112 69.5816 44.1562 69.0034 44.1562C68.1805 44.1562 67.4618 43.9896 66.8472 43.6562C66.2378 43.3177 65.7639 42.8229 65.4253 42.1719C65.0868 41.5208 64.9175 40.724 64.9175 39.7812C64.9175 38.8594 65.0711 38.0625 65.3784 37.3906C65.6909 36.7135 66.1284 36.1927 66.6909 35.8281C67.2586 35.4635 67.9253 35.2812 68.6909 35.2812ZM68.6753 36.3438C67.9826 36.3438 67.4305 36.5703 67.0191 37.0234C66.6076 37.4766 66.3628 38.1094 66.2847 38.9219H70.8159C70.8107 38.4115 70.73 37.9635 70.5738 37.5781C70.4227 37.1875 70.1909 36.8854 69.8784 36.6719C69.5659 36.4531 69.1649 36.3438 68.6753 36.3438ZM77.5653 44.1562C76.482 44.1562 75.6226 43.7865 74.9872 43.0469C74.357 42.3073 74.0419 41.2083 74.0419 39.75C74.0419 38.276 74.3648 37.1641 75.0106 36.4141C75.6565 35.6589 76.5158 35.2812 77.5888 35.2812C78.0419 35.2812 78.4377 35.3411 78.7763 35.4609C79.1148 35.5807 79.4065 35.7422 79.6513 35.9453C79.896 36.1432 80.1018 36.3698 80.2684 36.625H80.3622C80.3414 36.4635 80.3205 36.2422 80.2997 35.9609C80.2789 35.6797 80.2684 35.4505 80.2684 35.2734V31.8438H81.5653V44H80.5184L80.3231 42.7812H80.2684C80.107 43.0365 79.9013 43.2682 79.6513 43.4766C79.4065 43.6849 79.1122 43.8516 78.7684 43.9766C78.4299 44.0964 78.0289 44.1562 77.5653 44.1562ZM77.7684 43.0781C78.6851 43.0781 79.3335 42.8177 79.7138 42.2969C80.094 41.776 80.2841 41.0026 80.2841 39.9766V39.7422C80.2841 38.6536 80.1018 37.8177 79.7372 37.2344C79.3778 36.651 78.7216 36.3594 77.7684 36.3594C76.9716 36.3594 76.3752 36.6667 75.9794 37.2812C75.5835 37.8906 75.3856 38.724 75.3856 39.7812C75.3856 40.8333 75.5809 41.6458 75.9716 42.2188C76.3674 42.7917 76.9664 43.0781 77.7684 43.0781ZM95.3922 40.9609C95.3922 41.638 95.2229 42.2161 94.8844 42.6953C94.551 43.1693 94.0823 43.5312 93.4781 43.7812C92.874 44.0312 92.163 44.1562 91.3453 44.1562C90.913 44.1562 90.5042 44.1354 90.1188 44.0938C89.7333 44.0521 89.3792 43.9922 89.0563 43.9141C88.7333 43.8359 88.4495 43.7396 88.2047 43.625V42.3516C88.5953 42.513 89.0719 42.6641 89.6344 42.8047C90.1969 42.9401 90.7854 43.0078 91.4 43.0078C91.9729 43.0078 92.4573 42.9323 92.8531 42.7812C93.249 42.625 93.5484 42.4036 93.7516 42.1172C93.9599 41.8255 94.0641 41.4766 94.0641 41.0703C94.0641 40.6797 93.9781 40.3542 93.8063 40.0938C93.6344 39.8281 93.3479 39.5885 92.9469 39.375C92.551 39.1562 92.0094 38.9245 91.3219 38.6797C90.8375 38.5078 90.4104 38.3203 90.0406 38.1172C89.6708 37.9089 89.3609 37.6745 89.1109 37.4141C88.8609 37.1536 88.6708 36.8516 88.5406 36.5078C88.4156 36.1641 88.3531 35.7708 88.3531 35.3281C88.3531 34.7188 88.5068 34.1979 88.8141 33.7656C89.1266 33.3281 89.5563 32.9948 90.1031 32.7656C90.6552 32.5312 91.288 32.4141 92.0016 32.4141C92.6109 32.4141 93.1734 32.4714 93.6891 32.5859C94.2099 32.7005 94.6865 32.8542 95.1188 33.0469L94.7047 34.1875C94.2932 34.0156 93.8557 33.8724 93.3922 33.7578C92.9339 33.6432 92.4599 33.5859 91.9703 33.5859C91.4807 33.5859 91.0667 33.6589 90.7281 33.8047C90.3948 33.9453 90.1396 34.1458 89.9625 34.4062C89.7854 34.6667 89.6969 34.9766 89.6969 35.3359C89.6969 35.737 89.7802 36.0703 89.9469 36.3359C90.1188 36.6016 90.3896 36.8385 90.7594 37.0469C91.1344 37.25 91.6292 37.4635 92.2438 37.6875C92.9156 37.9323 93.4859 38.1927 93.9547 38.4688C94.4234 38.7396 94.7802 39.0729 95.025 39.4688C95.2698 39.8594 95.3922 40.3568 95.3922 40.9609ZM100.438 43.0938C100.652 43.0938 100.871 43.0755 101.095 43.0391C101.319 43.0026 101.501 42.9583 101.642 42.9062V43.9141C101.491 43.9818 101.28 44.0391 101.009 44.0859C100.743 44.1328 100.483 44.1562 100.228 44.1562C99.7744 44.1562 99.3629 44.0781 98.9931 43.9219C98.6233 43.7604 98.3265 43.4896 98.1025 43.1094C97.8838 42.7292 97.7744 42.2031 97.7744 41.5312V36.4531H96.5556V35.8203L97.7822 35.3125L98.2978 33.4531H99.0791V35.4375H101.587V36.4531H99.0791V41.4922C99.0791 42.0286 99.2015 42.4297 99.4463 42.6953C99.6963 42.9609 100.027 43.0938 100.438 43.0938ZM106.813 35.2812C107.542 35.2812 108.167 35.4427 108.688 35.7656C109.209 36.0885 109.607 36.5417 109.883 37.125C110.159 37.7031 110.297 38.3802 110.297 39.1562V39.9609H104.383C104.399 40.9661 104.649 41.7318 105.133 42.2578C105.618 42.7839 106.3 43.0469 107.18 43.0469C107.722 43.0469 108.201 42.9974 108.618 42.8984C109.034 42.7995 109.466 42.6536 109.914 42.4609V43.6016C109.482 43.7943 109.052 43.9349 108.625 44.0234C108.203 44.112 107.703 44.1562 107.125 44.1562C106.302 44.1562 105.584 43.9896 104.969 43.6562C104.36 43.3177 103.886 42.8229 103.547 42.1719C103.209 41.5208 103.039 40.724 103.039 39.7812C103.039 38.8594 103.193 38.0625 103.5 37.3906C103.813 36.7135 104.25 36.1927 104.813 35.8281C105.381 35.4635 106.047 35.2812 106.813 35.2812ZM106.797 36.3438C106.104 36.3438 105.552 36.5703 105.141 37.0234C104.729 37.4766 104.485 38.1094 104.407 38.9219H108.938C108.933 38.4115 108.852 37.9635 108.696 37.5781C108.545 37.1875 108.313 36.8854 108 36.6719C107.688 36.4531 107.287 36.3438 106.797 36.3438ZM116.664 35.2812C117.731 35.2812 118.583 35.6484 119.218 36.3828C119.854 37.1172 120.172 38.2214 120.172 39.6953C120.172 40.6693 120.026 41.487 119.734 42.1484C119.442 42.8099 119.031 43.3099 118.5 43.6484C117.974 43.987 117.351 44.1562 116.632 44.1562C116.179 44.1562 115.781 44.0964 115.437 43.9766C115.093 43.8568 114.799 43.6953 114.554 43.4922C114.31 43.2891 114.106 43.0677 113.945 42.8281H113.851C113.867 43.0312 113.885 43.276 113.906 43.5625C113.932 43.849 113.945 44.099 113.945 44.3125V47.8281H112.64V35.4375H113.711L113.882 36.7031H113.945C114.112 36.4427 114.315 36.2057 114.554 35.9922C114.794 35.7734 115.086 35.6016 115.429 35.4766C115.778 35.3464 116.19 35.2812 116.664 35.2812ZM116.437 36.375C115.843 36.375 115.364 36.4896 115 36.7188C114.64 36.9479 114.377 37.2917 114.211 37.75C114.044 38.2031 113.955 38.7734 113.945 39.4609V39.7109C113.945 40.4349 114.023 41.0469 114.179 41.5469C114.341 42.0469 114.604 42.4271 114.968 42.6875C115.338 42.9479 115.833 43.0781 116.453 43.0781C116.984 43.0781 117.427 42.9349 117.781 42.6484C118.135 42.362 118.398 41.9635 118.57 41.4531C118.747 40.9375 118.836 40.3464 118.836 39.6797C118.836 38.6693 118.638 37.8672 118.242 37.2734C117.851 36.6745 117.25 36.375 116.437 36.375Z" fill="#6F4AB8"/>
<rect y="350" width="152" height="4" rx="0.8" fill="#E0E4E5"/>
<path d="M10.4922 380H8.96094L2.73438 370.406H2.67188C2.6875 370.661 2.70573 370.953 2.72656 371.281C2.7474 371.604 2.76302 371.951 2.77344 372.32C2.78906 372.685 2.79688 373.057 2.79688 373.438V380H1.5625V368.578H3.08594L9.28906 378.141H9.34375C9.33333 377.958 9.32031 377.701 9.30469 377.367C9.28906 377.029 9.27344 376.667 9.25781 376.281C9.2474 375.891 9.24219 375.529 9.24219 375.195V368.578H10.4922V380ZM16.8509 371.281C17.5801 371.281 18.2051 371.443 18.7259 371.766C19.2468 372.089 19.6452 372.542 19.9213 373.125C20.1973 373.703 20.3353 374.38 20.3353 375.156V375.961H14.4213C14.4369 376.966 14.6869 377.732 15.1713 378.258C15.6556 378.784 16.3379 379.047 17.2181 379.047C17.7598 379.047 18.239 378.997 18.6556 378.898C19.0723 378.799 19.5046 378.654 19.9525 378.461V379.602C19.5202 379.794 19.0905 379.935 18.6634 380.023C18.2416 380.112 17.7416 380.156 17.1634 380.156C16.3405 380.156 15.6218 379.99 15.0072 379.656C14.3978 379.318 13.9239 378.823 13.5853 378.172C13.2468 377.521 13.0775 376.724 13.0775 375.781C13.0775 374.859 13.2311 374.062 13.5384 373.391C13.8509 372.714 14.2884 372.193 14.8509 371.828C15.4186 371.464 16.0853 371.281 16.8509 371.281ZM16.8353 372.344C16.1426 372.344 15.5905 372.57 15.1791 373.023C14.7676 373.477 14.5228 374.109 14.4447 374.922H18.9759C18.9707 374.411 18.89 373.964 18.7338 373.578C18.5827 373.188 18.3509 372.885 18.0384 372.672C17.7259 372.453 17.3249 372.344 16.8353 372.344ZM24.7175 375.617L21.7566 371.438H23.2409L25.4988 374.734L27.7488 371.438H29.2175L26.2566 375.617L29.3816 380H27.8972L25.4988 376.508L23.0847 380H21.6159L24.7175 375.617ZM33.9591 379.094C34.1726 379.094 34.3914 379.076 34.6153 379.039C34.8393 379.003 35.0216 378.958 35.1622 378.906V379.914C35.0111 379.982 34.8002 380.039 34.5294 380.086C34.2638 380.133 34.0033 380.156 33.7481 380.156C33.295 380.156 32.8835 380.078 32.5138 379.922C32.144 379.76 31.8471 379.49 31.6231 379.109C31.4044 378.729 31.295 378.203 31.295 377.531V372.453H30.0763V371.82L31.3028 371.312L31.8184 369.453H32.5997V371.438H35.1075V372.453H32.5997V377.492C32.5997 378.029 32.7221 378.43 32.9669 378.695C33.2169 378.961 33.5476 379.094 33.9591 379.094ZM47.9734 376.961C47.9734 377.638 47.8042 378.216 47.4656 378.695C47.1323 379.169 46.6635 379.531 46.0594 379.781C45.4552 380.031 44.7443 380.156 43.9266 380.156C43.4943 380.156 43.0854 380.135 42.7 380.094C42.3146 380.052 41.9604 379.992 41.6375 379.914C41.3146 379.836 41.0307 379.74 40.7859 379.625V378.352C41.1766 378.513 41.6531 378.664 42.2156 378.805C42.7781 378.94 43.3667 379.008 43.9813 379.008C44.5542 379.008 45.0385 378.932 45.4344 378.781C45.8302 378.625 46.1297 378.404 46.3328 378.117C46.5411 377.826 46.6453 377.477 46.6453 377.07C46.6453 376.68 46.5594 376.354 46.3875 376.094C46.2156 375.828 45.9292 375.589 45.5281 375.375C45.1323 375.156 44.5906 374.924 43.9031 374.68C43.4188 374.508 42.9917 374.32 42.6219 374.117C42.2521 373.909 41.9422 373.674 41.6922 373.414C41.4422 373.154 41.2521 372.852 41.1219 372.508C40.9969 372.164 40.9344 371.771 40.9344 371.328C40.9344 370.719 41.088 370.198 41.3953 369.766C41.7078 369.328 42.1375 368.995 42.6844 368.766C43.2365 368.531 43.8693 368.414 44.5828 368.414C45.1922 368.414 45.7547 368.471 46.2703 368.586C46.7911 368.701 47.2677 368.854 47.7 369.047L47.2859 370.188C46.8745 370.016 46.437 369.872 45.9734 369.758C45.5151 369.643 45.0411 369.586 44.5516 369.586C44.062 369.586 43.6479 369.659 43.3094 369.805C42.976 369.945 42.7208 370.146 42.5438 370.406C42.3667 370.667 42.2781 370.977 42.2781 371.336C42.2781 371.737 42.3615 372.07 42.5281 372.336C42.7 372.602 42.9708 372.839 43.3406 373.047C43.7156 373.25 44.2104 373.464 44.825 373.688C45.4969 373.932 46.0672 374.193 46.5359 374.469C47.0047 374.74 47.3615 375.073 47.6063 375.469C47.851 375.859 47.9734 376.357 47.9734 376.961ZM53.0197 379.094C53.2332 379.094 53.452 379.076 53.6759 379.039C53.8999 379.003 54.0822 378.958 54.2228 378.906V379.914C54.0718 379.982 53.8608 380.039 53.59 380.086C53.3244 380.133 53.064 380.156 52.8088 380.156C52.3556 380.156 51.9442 380.078 51.5744 379.922C51.2046 379.76 50.9077 379.49 50.6838 379.109C50.465 378.729 50.3556 378.203 50.3556 377.531V372.453H49.1369V371.82L50.3634 371.312L50.8791 369.453H51.6603V371.438H54.1681V372.453H51.6603V377.492C51.6603 378.029 51.7827 378.43 52.0275 378.695C52.2775 378.961 52.6082 379.094 53.0197 379.094ZM59.3941 371.281C60.1232 371.281 60.7482 371.443 61.2691 371.766C61.7899 372.089 62.1883 372.542 62.4644 373.125C62.7404 373.703 62.8784 374.38 62.8784 375.156V375.961H56.9644C56.98 376.966 57.23 377.732 57.7144 378.258C58.1987 378.784 58.881 379.047 59.7612 379.047C60.3029 379.047 60.7821 378.997 61.1987 378.898C61.6154 378.799 62.0477 378.654 62.4956 378.461V379.602C62.0633 379.794 61.6336 379.935 61.2066 380.023C60.7847 380.112 60.2847 380.156 59.7066 380.156C58.8836 380.156 58.1649 379.99 57.5503 379.656C56.9409 379.318 56.467 378.823 56.1284 378.172C55.7899 377.521 55.6206 376.724 55.6206 375.781C55.6206 374.859 55.7743 374.062 56.0816 373.391C56.3941 372.714 56.8316 372.193 57.3941 371.828C57.9618 371.464 58.6284 371.281 59.3941 371.281ZM59.3784 372.344C58.6857 372.344 58.1336 372.57 57.7222 373.023C57.3107 373.477 57.0659 374.109 56.9878 374.922H61.5191C61.5139 374.411 61.4331 373.964 61.2769 373.578C61.1258 373.188 60.8941 372.885 60.5816 372.672C60.2691 372.453 59.868 372.344 59.3784 372.344ZM69.245 371.281C70.3127 371.281 71.1643 371.648 71.7997 372.383C72.4351 373.117 72.7528 374.221 72.7528 375.695C72.7528 376.669 72.607 377.487 72.3153 378.148C72.0236 378.81 71.6122 379.31 71.0809 379.648C70.5549 379.987 69.9325 380.156 69.2137 380.156C68.7606 380.156 68.3622 380.096 68.0184 379.977C67.6747 379.857 67.3804 379.695 67.1356 379.492C66.8908 379.289 66.6877 379.068 66.5262 378.828H66.4325C66.4481 379.031 66.4664 379.276 66.4872 379.562C66.5132 379.849 66.5262 380.099 66.5262 380.312V383.828H65.2216V371.438H66.2919L66.4637 372.703H66.5262C66.6929 372.443 66.896 372.206 67.1356 371.992C67.3752 371.773 67.6669 371.602 68.0106 371.477C68.3596 371.346 68.771 371.281 69.245 371.281ZM69.0184 372.375C68.4247 372.375 67.9455 372.49 67.5809 372.719C67.2216 372.948 66.9585 373.292 66.7919 373.75C66.6252 374.203 66.5367 374.773 66.5262 375.461V375.711C66.5262 376.435 66.6044 377.047 66.7606 377.547C66.9221 378.047 67.1851 378.427 67.5497 378.688C67.9195 378.948 68.4143 379.078 69.0341 379.078C69.5653 379.078 70.008 378.935 70.3622 378.648C70.7164 378.362 70.9794 377.964 71.1512 377.453C71.3283 376.938 71.4169 376.346 71.4169 375.68C71.4169 374.669 71.219 373.867 70.8231 373.273C70.4325 372.674 69.8309 372.375 69.0184 372.375Z" fill="#686868"/>
<rect y="162" width="152" height="4" rx="0.8" fill="#977ECC"/>
<path d="M6.28906 182.43C5.82552 182.43 5.41406 182.521 5.05469 182.703C4.70052 182.88 4.40104 183.138 4.15625 183.477C3.91667 183.815 3.73438 184.224 3.60938 184.703C3.48438 185.182 3.42188 185.721 3.42188 186.32C3.42188 187.128 3.52083 187.818 3.71875 188.391C3.92188 188.958 4.23438 189.393 4.65625 189.695C5.07812 189.992 5.6224 190.141 6.28906 190.141C6.7526 190.141 7.21615 190.089 7.67969 189.984C8.14844 189.88 8.65625 189.732 9.20312 189.539V191.57C8.69792 191.779 8.20052 191.927 7.71094 192.016C7.22135 192.109 6.67188 192.156 6.0625 192.156C4.88542 192.156 3.91667 191.914 3.15625 191.43C2.40104 190.94 1.84115 190.258 1.47656 189.383C1.11198 188.503 0.929688 187.477 0.929688 186.305C0.929688 185.44 1.04688 184.648 1.28125 183.93C1.51562 183.211 1.85938 182.589 2.3125 182.062C2.76562 181.536 3.32552 181.13 3.99219 180.844C4.65885 180.557 5.42448 180.414 6.28906 180.414C6.85677 180.414 7.42448 180.487 7.99219 180.633C8.5651 180.773 9.11198 180.969 9.63281 181.219L8.85156 183.188C8.42448 182.984 7.99479 182.807 7.5625 182.656C7.13021 182.505 6.70573 182.43 6.28906 182.43ZM19.6088 183.266V192H17.7806L17.4603 190.883H17.3353C17.1478 191.18 16.9134 191.422 16.6322 191.609C16.3509 191.797 16.041 191.935 15.7025 192.023C15.364 192.112 15.0124 192.156 14.6478 192.156C14.0228 192.156 13.4785 192.047 13.015 191.828C12.5515 191.604 12.1895 191.258 11.9291 190.789C11.6739 190.32 11.5463 189.711 11.5463 188.961V183.266H13.9291V188.367C13.9291 188.992 14.041 189.464 14.265 189.781C14.489 190.099 14.8457 190.258 15.3353 190.258C15.8197 190.258 16.1999 190.148 16.4759 189.93C16.752 189.706 16.9447 189.38 17.0541 188.953C17.1686 188.521 17.2259 187.995 17.2259 187.375V183.266H19.6088ZM27.1238 183.102C27.2435 183.102 27.3816 183.109 27.5378 183.125C27.6993 183.135 27.8295 183.151 27.9284 183.172L27.7488 185.406C27.6706 185.38 27.5586 185.362 27.4128 185.352C27.2722 185.336 27.1498 185.328 27.0456 185.328C26.7383 185.328 26.4389 185.367 26.1472 185.445C25.8607 185.523 25.6029 185.651 25.3738 185.828C25.1446 186 24.9623 186.229 24.8269 186.516C24.6967 186.797 24.6316 187.143 24.6316 187.555V192H22.2488V183.266H24.0534L24.405 184.734H24.5222C24.6941 184.438 24.9076 184.167 25.1628 183.922C25.4232 183.672 25.7175 183.474 26.0456 183.328C26.379 183.177 26.7383 183.102 27.1238 183.102ZM34.5294 183.102C34.6492 183.102 34.7872 183.109 34.9434 183.125C35.1049 183.135 35.2351 183.151 35.3341 183.172L35.1544 185.406C35.0763 185.38 34.9643 185.362 34.8184 185.352C34.6778 185.336 34.5554 185.328 34.4513 185.328C34.144 185.328 33.8445 185.367 33.5528 185.445C33.2664 185.523 33.0085 185.651 32.7794 185.828C32.5502 186 32.3679 186.229 32.2325 186.516C32.1023 186.797 32.0372 187.143 32.0372 187.555V192H29.6544V183.266H31.4591L31.8106 184.734H31.9278C32.0997 184.438 32.3132 184.167 32.5684 183.922C32.8289 183.672 33.1231 183.474 33.4513 183.328C33.7846 183.177 34.144 183.102 34.5294 183.102ZM40.6616 183.102C41.4689 183.102 42.1642 183.258 42.7475 183.57C43.3308 183.878 43.7814 184.326 44.0991 184.914C44.4168 185.503 44.5756 186.221 44.5756 187.07V188.227H38.9428C38.9689 188.898 39.1694 189.427 39.5444 189.812C39.9246 190.193 40.4506 190.383 41.1225 190.383C41.6798 190.383 42.1902 190.326 42.6538 190.211C43.1173 190.096 43.5939 189.924 44.0834 189.695V191.539C43.6511 191.753 43.198 191.909 42.7241 192.008C42.2553 192.107 41.685 192.156 41.0131 192.156C40.1381 192.156 39.3621 191.995 38.685 191.672C38.0131 191.349 37.4845 190.857 37.0991 190.195C36.7189 189.534 36.5288 188.701 36.5288 187.695C36.5288 186.674 36.7006 185.826 37.0444 185.148C37.3933 184.466 37.8777 183.956 38.4975 183.617C39.1173 183.273 39.8386 183.102 40.6616 183.102ZM40.6772 184.797C40.2136 184.797 39.8282 184.945 39.5209 185.242C39.2189 185.539 39.0444 186.005 38.9975 186.641H42.3413C42.336 186.286 42.2709 185.971 42.1459 185.695C42.0261 185.419 41.8439 185.201 41.5991 185.039C41.3595 184.878 41.0522 184.797 40.6772 184.797ZM51.6141 183.102C52.5464 183.102 53.2964 183.357 53.8641 183.867C54.4318 184.372 54.7156 185.185 54.7156 186.305V192H52.3328V186.898C52.3328 186.273 52.2182 185.802 51.9891 185.484C51.7651 185.167 51.4109 185.008 50.9266 185.008C50.1974 185.008 49.7 185.255 49.4344 185.75C49.1688 186.245 49.0359 186.958 49.0359 187.891V192H46.6531V183.266H48.4734L48.7938 184.383H48.9266C49.1141 184.081 49.3458 183.836 49.6219 183.648C49.9031 183.461 50.213 183.323 50.5516 183.234C50.8953 183.146 51.2495 183.102 51.6141 183.102ZM60.9884 190.258C61.2489 190.258 61.5015 190.232 61.7463 190.18C61.9963 190.128 62.2436 190.062 62.4884 189.984V191.758C62.2332 191.872 61.9155 191.966 61.5353 192.039C61.1603 192.117 60.7489 192.156 60.3009 192.156C59.7801 192.156 59.3114 192.073 58.8947 191.906C58.4832 191.734 58.1577 191.44 57.9181 191.023C57.6838 190.602 57.5666 190.016 57.5666 189.266V185.055H56.4259V184.047L57.7384 183.25L58.4259 181.406H59.9494V183.266H62.3947V185.055H59.9494V189.266C59.9494 189.599 60.0431 189.849 60.2306 190.016C60.4233 190.177 60.6759 190.258 60.9884 190.258ZM75.6278 188.828C75.6278 189.505 75.4638 190.094 75.1356 190.594C74.8075 191.094 74.3283 191.479 73.6981 191.75C73.0731 192.021 72.3127 192.156 71.4169 192.156C71.021 192.156 70.633 192.13 70.2528 192.078C69.8778 192.026 69.5158 191.951 69.1669 191.852C68.8231 191.747 68.495 191.62 68.1825 191.469V189.219C68.7242 189.458 69.2867 189.674 69.87 189.867C70.4533 190.06 71.0315 190.156 71.6044 190.156C72.0002 190.156 72.3179 190.104 72.5575 190C72.8023 189.896 72.9794 189.753 73.0888 189.57C73.1981 189.388 73.2528 189.18 73.2528 188.945C73.2528 188.659 73.1565 188.414 72.9638 188.211C72.771 188.008 72.5054 187.818 72.1669 187.641C71.8335 187.464 71.4559 187.273 71.0341 187.07C70.7684 186.945 70.4794 186.794 70.1669 186.617C69.8544 186.435 69.5575 186.214 69.2763 185.953C68.995 185.693 68.7632 185.378 68.5809 185.008C68.4039 184.633 68.3153 184.185 68.3153 183.664C68.3153 182.982 68.4716 182.398 68.7841 181.914C69.0966 181.43 69.5419 181.06 70.12 180.805C70.7033 180.544 71.3908 180.414 72.1825 180.414C72.7763 180.414 73.3414 180.484 73.8778 180.625C74.4195 180.76 74.9846 180.958 75.5731 181.219L74.7919 183.102C74.2658 182.888 73.7945 182.724 73.3778 182.609C72.9611 182.49 72.5367 182.43 72.1044 182.43C71.8023 182.43 71.5445 182.479 71.3309 182.578C71.1174 182.672 70.9559 182.807 70.8466 182.984C70.7372 183.156 70.6825 183.357 70.6825 183.586C70.6825 183.857 70.7606 184.086 70.9169 184.273C71.0783 184.456 71.3179 184.633 71.6356 184.805C71.9585 184.977 72.3596 185.177 72.8388 185.406C73.4221 185.682 73.9195 185.971 74.3309 186.273C74.7476 186.57 75.0679 186.922 75.2919 187.328C75.5158 187.729 75.6278 188.229 75.6278 188.828ZM81.3303 190.258C81.5907 190.258 81.8433 190.232 82.0881 190.18C82.3381 190.128 82.5855 190.062 82.8303 189.984V191.758C82.5751 191.872 82.2574 191.966 81.8772 192.039C81.5022 192.117 81.0907 192.156 80.6428 192.156C80.122 192.156 79.6532 192.073 79.2366 191.906C78.8251 191.734 78.4996 191.44 78.26 191.023C78.0256 190.602 77.9084 190.016 77.9084 189.266V185.055H76.7678V184.047L78.0803 183.25L78.7678 181.406H80.2913V183.266H82.7366V185.055H80.2913V189.266C80.2913 189.599 80.385 189.849 80.5725 190.016C80.7652 190.177 81.0178 190.258 81.3303 190.258ZM88.3453 183.102C89.1526 183.102 89.8479 183.258 90.4313 183.57C91.0146 183.878 91.4651 184.326 91.7828 184.914C92.1005 185.503 92.2594 186.221 92.2594 187.07V188.227H86.6266C86.6526 188.898 86.8531 189.427 87.2281 189.812C87.6083 190.193 88.1344 190.383 88.8063 190.383C89.3635 190.383 89.874 190.326 90.3375 190.211C90.801 190.096 91.2776 189.924 91.7672 189.695V191.539C91.3349 191.753 90.8818 191.909 90.4078 192.008C89.9391 192.107 89.3688 192.156 88.6969 192.156C87.8219 192.156 87.0458 191.995 86.3688 191.672C85.6969 191.349 85.1682 190.857 84.7828 190.195C84.4026 189.534 84.2125 188.701 84.2125 187.695C84.2125 186.674 84.3844 185.826 84.7281 185.148C85.0771 184.466 85.5615 183.956 86.1813 183.617C86.801 183.273 87.5224 183.102 88.3453 183.102ZM88.3609 184.797C87.8974 184.797 87.512 184.945 87.2047 185.242C86.9026 185.539 86.7281 186.005 86.6813 186.641H90.025C90.0198 186.286 89.9547 185.971 89.8297 185.695C89.7099 185.419 89.5276 185.201 89.2828 185.039C89.0432 184.878 88.7359 184.797 88.3609 184.797ZM99.1963 183.102C100.181 183.102 100.975 183.484 101.579 184.25C102.188 185.016 102.493 186.138 102.493 187.617C102.493 188.607 102.35 189.44 102.063 190.117C101.777 190.789 101.381 191.297 100.876 191.641C100.371 191.984 99.79 192.156 99.1338 192.156C98.7119 192.156 98.3499 192.104 98.0478 192C97.7457 191.891 97.4879 191.753 97.2744 191.586C97.0608 191.414 96.8759 191.232 96.7197 191.039H96.5947C96.6364 191.247 96.6676 191.461 96.6884 191.68C96.7093 191.898 96.7197 192.112 96.7197 192.32V195.844H94.3369V183.266H96.2744L96.6103 184.398H96.7197C96.8759 184.164 97.066 183.948 97.29 183.75C97.514 183.552 97.7822 183.396 98.0947 183.281C98.4124 183.161 98.7796 183.102 99.1963 183.102ZM98.4306 185.008C98.014 185.008 97.6832 185.094 97.4384 185.266C97.1936 185.438 97.014 185.695 96.8994 186.039C96.79 186.383 96.7301 186.818 96.7197 187.344V187.602C96.7197 188.164 96.7718 188.641 96.8759 189.031C96.9853 189.422 97.165 189.719 97.415 189.922C97.6702 190.125 98.0192 190.227 98.4619 190.227C98.8265 190.227 99.1259 190.125 99.3603 189.922C99.5947 189.719 99.7692 189.422 99.8838 189.031C100.004 188.635 100.063 188.154 100.063 187.586C100.063 186.732 99.9306 186.089 99.665 185.656C99.3994 185.224 98.9879 185.008 98.4306 185.008Z" fill="#6F4AB8"/>
</svg>
