<svg width="110" height="125" viewBox="0 0 110 125" fill="none" xmlns="http://www.w3.org/2000/svg">
<path d="M10.2135 1.15715C11.3561 0.0314522 12.8795 0.0195312 12.8795 0.0195312H82.7188L95.2188 13.8203L109.175 29.3203V119.996C109.175 119.996 109.184 121.759 108.046 122.882C106.909 124.005 105.164 124.02 105.164 124.02H13.0682C13.0682 124.02 11.3687 124.004 10.2356 122.882C9.1026 121.76 9.11588 120.038 9.11588 120.038L9.09378 4.00118C9.09378 4.00118 9.07104 2.28284 10.2135 1.15715Z" fill="#DDE1E2"/>
<path d="M82.7188 0L96.2188 14.8203L109.219 29.3197H87.5082C87.5082 29.3197 85.4556 29.3197 84.0872 27.9388C82.7188 26.5578 82.7188 24.4864 82.7188 24.4864V0Z" fill="#EDEFEF"/>
<rect y="60.334" width="84.159" height="35.2558" rx="4" fill="#D43328"/>
<path d="M30.7099 73.5392C30.7099 75.7443 30.044 77.4293 28.7186 78.5944C27.3932 79.7595 25.497 80.3453 23.0491 80.3453H21.2544V87.6254H17.0625V67.1543H23.3725C25.7697 67.1543 27.5897 67.6875 28.839 68.7604C30.0884 69.8267 30.7099 71.4262 30.7099 73.5458V73.5392ZM21.248 76.7909H22.6242C23.9116 76.7909 24.8755 76.5276 25.516 76.001C26.1565 75.4744 26.4736 74.7042 26.4736 73.6971C26.4736 72.69 26.2072 71.9265 25.6682 71.4394C25.1291 70.9523 24.292 70.7088 23.1442 70.7088H21.2353V76.7843L21.248 76.7909Z" fill="white"/>
<path d="M50.0346 77.2C50.0346 80.5726 49.2005 83.1496 47.5324 84.9399C45.8644 86.7303 43.4567 87.6254 40.3015 87.6254H35.2578V67.1543H40.8522C43.7556 67.1543 46.0138 68.0404 47.6269 69.8036C49.232 71.5668 50.0425 74.0353 50.0425 77.2H50.0346ZM46.1083 77.3175C46.1083 72.9231 44.4166 70.7259 41.041 70.7259H39.0347V84.0538H40.6555C44.2907 84.0538 46.1162 81.8114 46.1162 77.3175H46.1083Z" fill="white"/>
<path d="M58.733 87.6254H54.5938V67.1543H65.9666V70.7108H58.733V75.9896H65.4645V79.5322H58.733V87.6254Z" fill="white"/>
</svg>
